<svg id="Layer_2" data-name="Layer 2" xmlns="http://www.w3.org/2000/svg" viewBox="0 0 1106.198 1016.323" style="width: 100%; height: 100%;">
  <g id="Layer_2-2" data-name="Layer 2">
    <g>
      <path d="m560.531,1010.408c-.552,0-1-.447-1-1s.447-1,1-1c3.993-.001,8.037-.052,12.021-.151.008,0,.017,0,.025,0,.54,0,.985.432.999.975.014.552-.423,1.011-.976,1.024-3.999.1-8.059.151-12.068.152Zm-12.042-.143c-.008,0-.017,0-.025,0-4.013-.097-8.07-.245-12.06-.438-.551-.027-.977-.496-.95-1.048s.488-.994,1.048-.95c3.973.193,8.014.34,12.011.437.552.014.989.472.975,1.024-.013.544-.458.976-.999.976Zm36.122-.455c-.529,0-.972-.416-.998-.951-.027-.551.398-1.021.949-1.048,3.98-.197,8.017-.446,11.996-.741.565-.042,1.03.373,1.071.923.041.551-.372,1.031-.923,1.071-3.996.297-8.049.547-12.045.745-.018,0-.034,0-.051,0Zm-60.177-.717c-.025,0-.049,0-.074-.002-3.985-.293-8.03-.641-12.023-1.034-.55-.054-.952-.543-.897-1.093.054-.55.542-.953,1.093-.897,3.978.391,8.006.737,11.975,1.029.551.04.964.52.924,1.07-.039.526-.478.927-.997.927Zm84.195-1.066c-.508,0-.943-.385-.994-.901-.055-.55.347-1.039.896-1.094,3.964-.393,7.982-.842,11.943-1.335.551-.068,1.048.321,1.115.869.068.548-.32,1.048-.869,1.116-3.977.495-8.012.946-11.992,1.341-.033.003-.066.005-.1.005Zm-108.164-1.294c-.041,0-.083-.002-.124-.007-3.973-.491-7.996-1.04-11.958-1.63-.546-.082-.923-.59-.842-1.137.082-.546.591-.923,1.137-.842,3.945.588,7.952,1.134,11.908,1.624.548.067.938.567.87,1.115-.063.506-.494.877-.991.877Zm132.063-1.679c-.487,0-.914-.356-.988-.852-.082-.546.295-1.056.841-1.137,3.949-.592,7.94-1.241,11.862-1.929.543-.097,1.062.268,1.158.812.095.544-.269,1.062-.812,1.158-3.938.691-7.946,1.343-11.911,1.937-.051.008-.101.011-.149.011Zm-155.885-1.872c-.057,0-.115-.005-.173-.015-3.941-.689-7.932-1.438-11.862-2.226-.542-.109-.892-.636-.784-1.177.109-.542.633-.894,1.177-.784,3.914.785,7.888,1.531,11.812,2.217.544.095.908.613.812,1.157-.084.486-.507.828-.984.828Zm179.607-2.291c-.467,0-.884-.328-.979-.802-.109-.542.241-1.069.783-1.178,3.923-.791,7.876-1.639,11.75-2.52.534-.126,1.073.215,1.197.753.122.538-.215,1.074-.754,1.197-3.89.885-7.859,1.736-11.799,2.531-.066.013-.133.02-.198.02Zm-203.222-2.446c-.073,0-.148-.008-.222-.025-3.901-.885-7.85-1.833-11.735-2.817-.535-.136-.859-.679-.724-1.215.136-.535.682-.857,1.215-.724,3.87.98,7.802,1.924,11.687,2.806.539.122.876.658.754,1.196-.105.464-.518.779-.974.779Zm226.705-2.898c-.446,0-.854-.301-.968-.754-.137-.536.188-1.08.723-1.216,3.858-.981,7.765-2.026,11.609-3.107.538-.149,1.084.161,1.233.692.149.532-.16,1.084-.692,1.233-3.86,1.085-7.782,2.134-11.658,3.12-.082.021-.165.031-.247.031Zm-250.053-3.018c-.089,0-.18-.012-.271-.038-3.859-1.082-7.755-2.227-11.579-3.404-.528-.162-.824-.722-.662-1.25.162-.529.721-.823,1.25-.662,3.809,1.172,7.688,2.312,11.531,3.39.532.149.842.701.693,1.233-.124.441-.525.73-.962.73Zm273.242-3.499c-.428,0-.823-.276-.955-.706-.163-.528.133-1.087.66-1.25,3.82-1.179,7.669-2.419,11.439-3.687.525-.177,1.091.106,1.267.629s-.106,1.09-.63,1.266c-3.786,1.273-7.65,2.519-11.486,3.702-.099.03-.197.045-.295.045Zm-296.306-3.597c-.105,0-.212-.017-.318-.052-3.814-1.279-7.661-2.624-11.432-3.996-.519-.189-.787-.763-.598-1.282.189-.519.766-.784,1.282-.598,3.756,1.366,7.586,2.705,11.384,3.979.524.176.806.743.63,1.266-.141.418-.53.683-.948.683Zm319.135-4.079c-.408,0-.792-.251-.939-.658-.189-.519.078-1.093.597-1.282,3.75-1.367,7.532-2.799,11.24-4.256.513-.201,1.095.05,1.297.565.202.514-.051,1.094-.565,1.296-3.724,1.463-7.521,2.901-11.286,4.274-.113.041-.229.061-.343.061Zm-341.844-4.181c-.121,0-.245-.022-.365-.07-3.731-1.464-7.503-3-11.21-4.564-.509-.215-.748-.801-.533-1.31.214-.508.801-.748,1.31-.533,3.692,1.558,7.448,3.087,11.164,4.545.514.202.768.782.565,1.296-.154.395-.532.635-.931.635Zm364.22-4.613c-.39,0-.76-.229-.921-.611-.215-.509.023-1.096.532-1.311,3.674-1.552,7.367-3.167,10.976-4.797.504-.228,1.096-.004,1.323.499s.004,1.096-.499,1.323c-3.624,1.638-7.332,3.259-11.021,4.818-.128.053-.26.079-.39.079Zm-386.473-4.775c-.138,0-.278-.029-.411-.089-3.659-1.653-7.347-3.375-10.962-5.119-.498-.24-.706-.838-.466-1.335s.838-.706,1.335-.466c3.6,1.737,7.273,3.452,10.916,5.099.503.227.727.82.5,1.323-.167.37-.531.589-.912.589Zm408.353-5.115c-.372,0-.729-.208-.901-.565-.24-.498-.031-1.095.466-1.335,3.584-1.729,7.193-3.527,10.729-5.342.493-.253,1.094-.058,1.347.433.252.491.059,1.094-.433,1.347-3.55,1.823-7.174,3.628-10.773,5.364-.14.068-.288.1-.434.1Zm-430.096-5.374c-.154,0-.31-.035-.456-.11-3.572-1.834-7.167-3.739-10.686-5.66-.485-.265-.663-.873-.399-1.357.265-.485.874-.663,1.357-.399,3.505,1.914,7.085,3.81,10.642,5.637.491.252.685.855.433,1.347-.177.345-.527.543-.891.543Zm451.464-5.6c-.354,0-.697-.188-.879-.521-.265-.485-.086-1.092.399-1.357,3.495-1.907,7.013-3.883,10.454-5.874.479-.277,1.091-.114,1.366.365.277.478.113,1.089-.364,1.366-3.456,1.999-6.988,3.983-10.499,5.898-.151.083-.315.122-.478.122Zm-472.646-5.96c-.17,0-.342-.043-.5-.134-3.47-2.008-6.964-4.089-10.386-6.185-.471-.289-.619-.904-.33-1.375.289-.47.905-.619,1.375-.33,3.408,2.087,6.887,4.16,10.343,6.159.478.277.641.889.365,1.367-.186.32-.521.499-.867.499Zm493.451-6.072c-.337,0-.665-.17-.854-.478-.289-.471-.141-1.086.33-1.375,3.393-2.076,6.809-4.226,10.154-6.389.465-.301,1.082-.167,1.383.297.3.464.167,1.083-.297,1.383-3.359,2.172-6.789,4.331-10.195,6.416-.163.1-.344.147-.521.147Zm-514.021-6.527c-.186,0-.375-.052-.542-.161-3.358-2.174-6.743-4.426-10.061-6.692-.456-.312-.573-.934-.262-1.39.311-.457.934-.574,1.39-.262,3.304,2.258,6.675,4.5,10.02,6.665.464.3.596.919.296,1.383-.191.295-.513.457-.84.457Zm534.211-6.529c-.319,0-.633-.152-.827-.436-.312-.457-.193-1.079.263-1.39,3.292-2.248,6.599-4.565,9.828-6.889.449-.323,1.073-.22,1.396.228.322.448.221,1.073-.228,1.396-3.243,2.333-6.563,4.661-9.869,6.917-.172.118-.368.174-.562.174Zm-554.12-7.075c-.202,0-.407-.061-.583-.188-3.259-2.348-6.527-4.765-9.712-7.183-.44-.333-.526-.961-.192-1.401.333-.439.961-.526,1.401-.192,3.172,2.408,6.426,4.814,9.672,7.152.448.323.55.948.227,1.396-.196.271-.502.416-.812.416Zm573.645-6.976c-.303,0-.602-.136-.798-.396-.334-.44-.247-1.067.192-1.401,3.176-2.407,6.365-4.887,9.479-7.371.434-.345,1.061-.273,1.406.158.344.432.273,1.061-.158,1.405-3.127,2.494-6.329,4.984-9.519,7.401-.18.137-.393.203-.603.203Zm-592.845-7.597c-.219,0-.439-.071-.624-.219-3.127-2.498-6.27-5.073-9.34-7.653-.422-.355-.478-.986-.122-1.409.355-.423.987-.478,1.409-.122,3.058,2.569,6.188,5.134,9.302,7.622.432.345.502.974.157,1.405-.197.248-.488.376-.782.376Zm611.655-7.409c-.286,0-.569-.122-.767-.357-.355-.423-.3-1.054.123-1.409,3.042-2.552,6.105-5.188,9.104-7.834.412-.364,1.044-.326,1.411.088.365.414.326,1.046-.088,1.412-3.012,2.657-6.088,5.303-9.143,7.866-.188.157-.415.234-.642.234Zm-630.103-8.093c-.235,0-.472-.083-.662-.25-3.005-2.655-6.015-5.382-8.946-8.104-.404-.376-.428-1.009-.052-1.414.377-.404,1.009-.427,1.414-.052,2.919,2.711,5.917,5.427,8.909,8.071.414.366.453.998.087,1.412-.198.224-.473.338-.75.338Zm648.153-7.833c-.269,0-.536-.107-.733-.32-.375-.405-.352-1.038.054-1.414,2.93-2.717,5.86-5.502,8.708-8.278.396-.384,1.03-.377,1.414.019.386.396.378,1.028-.018,1.414-2.86,2.787-5.803,5.584-8.745,8.312-.192.178-.437.267-.68.267Zm-665.804-8.559c-.252,0-.504-.095-.698-.284-2.862-2.793-5.732-5.665-8.531-8.535-.386-.396-.378-1.029.018-1.414.395-.385,1.029-.377,1.414.018,2.788,2.858,5.646,5.718,8.496,8.5.395.386.403,1.019.017,1.415-.196.201-.456.301-.716.301Zm683.051-8.246c-.252,0-.504-.095-.698-.285-.396-.386-.403-1.019-.018-1.414,2.793-2.86,5.582-5.788,8.291-8.702.378-.405,1.011-.427,1.413-.052.404.376.428,1.009.052,1.413-2.72,2.926-5.521,5.866-8.324,8.738-.196.201-.456.301-.716.301Zm-699.861-8.994c-.269,0-.537-.107-.733-.32-2.722-2.934-5.445-5.943-8.095-8.943-.366-.414-.326-1.046.088-1.412.413-.365,1.045-.327,1.411.088,2.639,2.988,5.352,5.985,8.062,8.907.376.405.352,1.038-.053,1.413-.192.179-.437.267-.68.267Zm716.259-8.65c-.236,0-.473-.083-.662-.251-.414-.366-.453-.998-.087-1.412,2.646-2.992,5.288-6.056,7.852-9.105.357-.424.987-.477,1.409-.122.423.355.478.986.122,1.409-2.575,3.062-5.228,6.138-7.885,9.143-.197.223-.473.337-.749.337Zm-732.19-9.396c-.285,0-.568-.122-.766-.357-2.574-3.065-5.144-6.204-7.64-9.33-.344-.432-.274-1.061.158-1.406.432-.343,1.06-.273,1.405.158,2.485,3.114,5.044,6.24,7.607,9.292.355.423.3,1.054-.123,1.409-.188.158-.416.234-.643.234Zm747.697-9.047c-.219,0-.439-.072-.623-.219-.432-.345-.502-.974-.157-1.406,2.495-3.121,4.982-6.313,7.394-9.487.333-.439.961-.524,1.4-.191.44.334.526.961.191,1.401-2.42,3.187-4.918,6.392-7.423,9.526-.197.247-.488.375-.782.375Zm-762.71-9.759c-.302,0-.601-.136-.798-.396-2.422-3.194-4.833-6.456-7.165-9.694-.323-.448-.221-1.073.227-1.396.449-.322,1.074-.22,1.396.227,2.322,3.225,4.723,6.473,7.136,9.654.333.44.248,1.067-.193,1.401-.181.137-.393.203-.603.203Zm777.29-9.436c-.202,0-.407-.062-.584-.189-.448-.323-.549-.948-.227-1.396,2.33-3.23,4.656-6.543,6.915-9.846.311-.456.933-.572,1.39-.261.456.312.572.934.261,1.39-2.268,3.316-4.604,6.643-6.942,9.887-.196.271-.502.415-.812.415Zm-791.346-10.084c-.319,0-.633-.152-.827-.436-2.253-3.298-4.498-6.674-6.672-10.033-.3-.464-.167-1.083.296-1.383.464-.301,1.082-.167,1.383.296,2.166,3.346,4.401,6.708,6.645,9.992.312.456.194,1.078-.262,1.39-.172.118-.369.174-.563.174Zm804.957-9.819c-.187,0-.375-.052-.543-.161-.463-.3-.596-.919-.295-1.383,2.169-3.35,4.329-6.775,6.417-10.181.288-.472.904-.618,1.375-.33.471.289.619.904.33,1.375-2.097,3.42-4.265,6.86-6.444,10.224-.191.296-.512.457-.84.457Zm-818.021-10.367c-.336,0-.665-.17-.854-.478-2.092-3.416-4.166-6.897-6.163-10.349-.276-.478-.113-1.09.365-1.367.478-.275,1.089-.113,1.367.365,1.989,3.438,4.054,6.905,6.137,10.306.289.471.141,1.087-.33,1.375-.163.1-.343.147-.521.147Zm830.627-10.197c-.17,0-.343-.043-.5-.135-.479-.277-.642-.889-.364-1.367,1.994-3.442,3.98-6.973,5.903-10.494.266-.485.873-.664,1.357-.398.484.265.663.872.398,1.357-1.932,3.536-3.927,7.081-5.929,10.538-.186.32-.521.499-.866.499Zm-842.666-10.604c-.354,0-.697-.188-.879-.521-1.911-3.5-3.807-7.079-5.636-10.637-.252-.491-.059-1.094.432-1.346.49-.252,1.094-.059,1.347.432,1.821,3.543,3.71,7.107,5.613,10.593.265.484.086,1.092-.398,1.357-.152.083-.316.122-.478.122Zm854.234-10.574c-.153,0-.31-.036-.456-.111-.491-.252-.685-.855-.433-1.346,1.83-3.559,3.638-7.186,5.373-10.78.239-.497.839-.707,1.335-.466.498.24.706.838.466,1.335-1.742,3.609-3.558,7.251-5.395,10.825-.178.345-.527.543-.891.543Zm-865.216-10.791c-.372,0-.729-.208-.901-.565-1.733-3.589-3.448-7.256-5.097-10.9-.228-.503-.004-1.096.499-1.323.504-.227,1.096-.004,1.323.499,1.642,3.628,3.35,7.28,5.075,10.854.24.498.032,1.095-.465,1.335-.14.068-.289.1-.434.1Zm875.714-10.947c-.138,0-.277-.029-.411-.089-.503-.228-.727-.82-.499-1.323,1.648-3.649,3.272-7.364,4.826-11.042.215-.509.802-.748,1.31-.532.509.215.747.802.532,1.311-1.56,3.693-3.189,7.424-4.846,11.088-.167.369-.531.588-.912.588Zm-885.612-10.927c-.39,0-.76-.229-.921-.611-1.55-3.667-3.079-7.413-4.543-11.134-.202-.514.051-1.095.564-1.297.516-.203,1.094.051,1.297.564,1.458,3.706,2.981,7.437,4.524,11.088.215.509-.023,1.095-.532,1.311-.127.053-.259.079-.389.079Zm895.007-11.324c-.122,0-.245-.022-.365-.069-.515-.202-.768-.782-.565-1.296,1.464-3.728,2.9-7.522,4.268-11.276.188-.518.765-.788,1.281-.597.52.189.787.763.598,1.282-1.373,3.77-2.814,7.579-4.285,11.323-.154.394-.532.634-.931.634Zm-903.81-11.05c-.408,0-.792-.252-.939-.658-1.375-3.769-2.718-7.601-3.993-11.39-.176-.523.105-1.09.629-1.267s1.09.106,1.267.629c1.27,3.773,2.608,7.589,3.977,11.342.189.519-.078,1.093-.597,1.282-.113.041-.229.061-.343.061Zm912.078-11.655c-.105,0-.213-.017-.318-.053-.523-.176-.806-.743-.63-1.266,1.271-3.785,2.515-7.648,3.695-11.483.162-.528.724-.825,1.25-.661.528.163.824.722.662,1.25-1.186,3.85-2.435,7.729-3.711,11.531-.141.418-.53.682-.948.682Zm-919.761-11.173c-.427,0-.822-.275-.955-.705-1.179-3.818-2.328-7.713-3.416-11.575-.15-.532.16-1.084.691-1.233.536-.154,1.084.16,1.233.691,1.083,3.846,2.228,7.725,3.402,11.527.163.528-.133,1.087-.661,1.25-.098.03-.198.044-.295.044Zm926.864-11.888c-.09,0-.181-.012-.271-.038-.531-.149-.842-.702-.692-1.233,1.072-3.818,2.116-7.725,3.103-11.611.136-.536.68-.859,1.216-.723.535.136.859.68.724,1.215-.991,3.903-2.039,7.826-3.116,11.66-.124.441-.525.73-.962.73Zm-933.391-11.296c-.447,0-.854-.301-.969-.754-.988-3.883-1.941-7.83-2.831-11.732-.123-.539.214-1.074.753-1.197.539-.124,1.074.214,1.197.753.886,3.885,1.834,7.816,2.819,11.683.136.535-.188,1.08-.723,1.216-.083.021-.166.031-.247.031Zm939.317-12.05c-.073,0-.147-.008-.223-.025-.538-.122-.876-.658-.754-1.196.887-3.905,1.732-7.859,2.516-11.753.109-.541.637-.89,1.178-.783.541.109.892.636.783,1.178-.786,3.909-1.636,7.879-2.525,11.801-.105.464-.518.779-.975.779Zm-944.671-11.433c-.466,0-.883-.328-.979-.802-.791-3.917-1.544-7.907-2.239-11.859-.096-.544.268-1.062.812-1.158.543-.095,1.062.268,1.158.812.692,3.936,1.442,7.909,2.229,11.81.109.542-.241,1.069-.783,1.178-.067.014-.133.02-.199.02Zm949.417-12.18c-.057,0-.115-.005-.173-.015-.545-.095-.908-.613-.813-1.157.686-3.919,1.333-7.911,1.924-11.864.082-.545.594-.919,1.137-.841.547.082.923.591.842,1.137-.594,3.969-1.243,7.977-1.932,11.913-.085.486-.508.828-.984.828Zm-953.589-11.541c-.486,0-.913-.355-.987-.852-.595-3.964-1.148-7.986-1.643-11.956-.068-.548.32-1.048.868-1.116.549-.069,1.048.32,1.116.868.493,3.953,1.044,7.959,1.636,11.907.082.546-.294,1.055-.84,1.137-.05.008-.101.011-.15.011Zm957.148-12.28c-.041,0-.082-.002-.124-.007-.548-.068-.938-.568-.869-1.116.489-3.948.938-7.967,1.33-11.944.054-.55.542-.95,1.094-.897.549.054.951.544.896,1.093-.395,3.994-.844,8.029-1.336,11.994-.062.506-.493.877-.991.877Zm-960.129-11.619c-.508,0-.943-.385-.994-.901-.396-3.975-.748-8.02-1.046-12.023-.041-.551.372-1.03.923-1.071.537-.046,1.03.372,1.071.923.297,3.987.648,8.015,1.042,11.973.055.55-.347,1.04-.896,1.094-.034.003-.067.005-.1.005Zm962.499-12.349c-.024,0-.05,0-.074-.002-.551-.041-.965-.521-.924-1.071.293-3.967.541-8.002.736-11.996.026-.552.489-.989,1.048-.95.552.027.978.496.95,1.047-.197,4.01-.446,8.062-.74,12.045-.039.526-.478.926-.996.926Zm-964.291-11.669c-.529,0-.971-.416-.998-.95-.199-3.989-.351-8.047-.452-12.061-.014-.552.422-1.011.974-1.025.538-.037,1.011.422,1.025.974.101,3.998.252,8.04.45,12.012.028.552-.397,1.021-.949,1.048-.017,0-.034.001-.051.001Zm965.471-12.386h-.024c-.552-.014-.989-.472-.976-1.024.098-3.975.146-8.019.146-12.018v-.692c0-.552.447-1,1-1s1,.448,1,1v.692c0,4.015-.05,8.075-.146,12.066-.014.544-.459.976-1,.976Zm-966.077-11.694c-.552,0-1-.448-1-1v-.353c0-3.888.047-7.831.14-11.713.013-.552.431-.997,1.023-.976.552.013.989.472.976,1.024-.092,3.867-.138,7.793-.138,11.67v.348c0,.552-.448,1-1,1Zm966.058-13.082c-.54,0-.984-.431-.999-.974-.103-3.985-.256-8.026-.458-12.012-.027-.551.397-1.021.948-1.049.546-.032,1.021.396,1.05.948.202,4.001.356,8.06.46,12.061.014.552-.422,1.011-.975,1.025-.009,0-.018,0-.026,0Zm-965.484-10.995c-.016,0-.032,0-.049,0-.552-.027-.977-.496-.951-1.047.194-4.004.44-8.057.732-12.046.04-.55.527-.962,1.07-.924.551.041.965.52.925,1.071-.291,3.973-.537,8.009-.729,11.996-.026.535-.468.952-.999.952Zm964.269-13.061c-.519,0-.957-.4-.996-.925-.298-3.96-.651-7.988-1.051-11.972-.055-.549.346-1.04.896-1.095.56-.051,1.04.346,1.095.896.401,4,.756,8.045,1.055,12.022.041.55-.371,1.03-.922,1.072-.025.002-.051.003-.076.003Zm-962.511-10.959c-.033,0-.065-.001-.099-.005-.55-.054-.952-.543-.897-1.093.391-3.982.837-8.017,1.327-11.995.067-.548.561-.936,1.115-.871.548.068.938.567.871,1.115-.488,3.961-.933,7.98-1.322,11.946-.051.517-.486.902-.994.902Zm960.107-13.004c-.497,0-.928-.37-.991-.875-.493-3.94-1.047-7.945-1.645-11.905-.082-.546.294-1.056.84-1.138.549-.084,1.056.293,1.139.84.6,3.977,1.155,7.999,1.65,11.955.068.548-.32,1.048-.868,1.116-.042.005-.084.008-.125.008Zm-957.159-10.9c-.049,0-.099-.003-.148-.011-.546-.082-.923-.59-.842-1.136.59-3.963,1.237-7.972,1.924-11.915.095-.544.615-.906,1.157-.813.544.095.908.613.813,1.157-.685,3.926-1.329,7.918-1.916,11.865-.074.497-.5.853-.988.853Zm953.567-12.915c-.477,0-.898-.341-.983-.826-.69-3.91-1.443-7.883-2.238-11.809-.109-.541.241-1.069.782-1.178.539-.109,1.069.241,1.179.782.798,3.942,1.554,7.931,2.246,11.857.097.544-.267,1.062-.811,1.159-.059.01-.117.015-.175.015Zm-949.431-10.812c-.065,0-.131-.006-.198-.02-.542-.108-.893-.635-.784-1.177.785-3.921,1.632-7.893,2.518-11.803.122-.539.66-.875,1.196-.754.539.122.876.657.754,1.196-.882,3.895-1.726,7.85-2.507,11.754-.095.475-.513.804-.979.804Zm944.649-12.794c-.456,0-.868-.313-.974-.777-.888-3.881-1.838-7.811-2.826-11.682-.137-.535.187-1.08.722-1.216.533-.138,1.079.186,1.216.721.992,3.887,1.947,7.833,2.838,11.73.123.539-.213,1.075-.752,1.198-.075.018-.149.025-.224.025Zm-939.331-10.696c-.081,0-.164-.01-.246-.031-.536-.136-.86-.68-.724-1.215.982-3.884,2.028-7.808,3.107-11.662.148-.532.699-.844,1.232-.693.532.149.842.701.693,1.232-1.074,3.838-2.115,7.746-3.094,11.613-.114.453-.521.755-.969.755Zm933.373-12.641c-.437,0-.837-.288-.962-.729-1.077-3.82-2.225-7.697-3.409-11.524-.163-.528.132-1.088.659-1.251.53-.164,1.088.132,1.251.659,1.19,3.843,2.342,7.737,3.425,11.573.149.531-.16,1.084-.691,1.234-.091.025-.183.038-.272.038Zm-926.88-10.553c-.098,0-.196-.015-.294-.044-.528-.162-.825-.722-.663-1.25,1.183-3.852,2.429-7.732,3.704-11.534.176-.523.743-.804,1.266-.63.523.176.806.742.63,1.266-1.269,3.786-2.51,7.65-3.688,11.486-.132.43-.528.707-.956.707Zm919.757-12.454c-.418,0-.807-.264-.947-.681-1.272-3.772-2.612-7.587-3.984-11.339-.189-.519.077-1.093.596-1.282.518-.19,1.093.077,1.283.596,1.377,3.767,2.724,7.598,4,11.387.177.523-.104,1.09-.628,1.267-.105.036-.214.053-.319.053Zm-912.079-10.465c-.113,0-.229-.02-.341-.061-.519-.188-.787-.762-.599-1.281,1.374-3.78,2.812-7.591,4.277-11.327.202-.514.78-.769,1.296-.566.514.202.768.782.566,1.296-1.459,3.72-2.892,7.515-4.26,11.279-.147.407-.531.659-.94.659Zm903.81-12.157c-.398,0-.775-.24-.931-.633-1.459-3.7-2.983-7.43-4.531-11.084-.215-.509.022-1.096.531-1.311.504-.213,1.095.021,1.311.531,1.555,3.67,3.086,7.416,4.551,11.131.202.514-.05,1.094-.563,1.297-.121.047-.245.07-.367.07Zm-894.991-10.333c-.129,0-.261-.025-.388-.079-.509-.214-.748-.801-.533-1.31,1.559-3.698,3.187-7.43,4.839-11.092.228-.503.82-.726,1.323-.5.503.228.728.82.5,1.323-1.646,3.646-3.267,7.363-4.819,11.045-.161.382-.532.612-.922.612Zm885.633-11.768c-.381,0-.744-.218-.912-.588-1.638-3.614-3.349-7.265-5.083-10.851-.24-.498-.032-1.095.465-1.336.5-.24,1.096-.032,1.336.465,1.741,3.601,3.459,7.267,5.104,10.896.228.503.005,1.095-.498,1.323-.134.061-.274.09-.412.09Zm-875.699-10.241c-.146,0-.293-.032-.434-.099-.498-.24-.707-.837-.467-1.335,1.742-3.613,3.554-7.256,5.388-10.829.252-.491.856-.686,1.346-.433.491.252.686.855.433,1.346-1.826,3.558-3.631,7.187-5.365,10.784-.172.357-.53.566-.901.566Zm865.239-11.378c-.363,0-.713-.198-.891-.542-1.81-3.517-3.7-7.08-5.619-10.589-.266-.485-.088-1.092.397-1.357.483-.264,1.092-.087,1.356.397,1.928,3.524,3.826,7.102,5.645,10.634.252.491.059,1.094-.432,1.347-.146.075-.303.111-.457.111Zm-854.22-10.094c-.162,0-.326-.039-.478-.122-.485-.264-.663-.872-.399-1.357,1.919-3.52,3.911-7.066,5.92-10.541.276-.478.889-.642,1.366-.365.478.276.642.888.365,1.366-2,3.46-3.984,6.993-5.896,10.498-.182.333-.524.521-.879.521Zm842.69-10.988c-.345,0-.681-.179-.866-.499-1.985-3.426-4.052-6.892-6.144-10.301-.289-.471-.142-1.086.33-1.375.47-.288,1.086-.142,1.375.33,2.1,3.423,4.176,6.904,6.169,10.344.277.478.114,1.09-.364,1.367-.157.091-.33.135-.5.135Zm-830.614-9.898c-.178,0-.358-.047-.521-.147-.471-.289-.619-.904-.331-1.375,2.092-3.418,4.258-6.86,6.437-10.229.3-.463.92-.596,1.383-.297.464.3.597.919.297,1.383-2.17,3.355-4.327,6.782-6.411,10.187-.188.308-.518.478-.854.478Zm818.045-10.593c-.328,0-.648-.161-.84-.456-2.171-3.349-4.409-6.709-6.651-9.988-.312-.456-.195-1.078.261-1.39.458-.312,1.079-.194,1.39.261,2.252,3.292,4.499,6.666,6.679,10.029.301.463.169,1.083-.295,1.383-.168.109-.356.161-.543.161Zm-804.946-9.657c-.194,0-.39-.056-.563-.174-.456-.311-.573-.934-.262-1.39,2.257-3.306,4.591-6.634,6.936-9.891.322-.447.947-.551,1.396-.228.448.323.55.948.227,1.396-2.335,3.244-4.66,6.558-6.908,9.851-.193.284-.507.436-.827.436Zm791.368-10.193c-.311,0-.616-.144-.812-.415-2.333-3.235-4.735-6.481-7.142-9.649-.334-.44-.249-1.067.191-1.401.438-.333,1.067-.249,1.4.191,2.417,3.181,4.829,6.44,7.173,9.689.322.448.222,1.073-.227,1.396-.177.127-.382.189-.584.189Zm-777.282-9.373c-.211,0-.423-.066-.604-.203-.44-.334-.526-.961-.193-1.401,2.427-3.2,4.922-6.407,7.417-9.531.345-.431.975-.502,1.405-.157.432.344.502.974.157,1.405-2.484,3.111-4.97,6.305-7.386,9.492-.197.259-.496.396-.797.396Zm762.728-9.786c-.294,0-.585-.128-.782-.376-2.479-3.101-5.04-6.225-7.614-9.286-.355-.423-.301-1.054.122-1.409.422-.355,1.053-.302,1.409.122,2.585,3.074,5.157,6.211,7.646,9.325.345.432.274,1.061-.157,1.406-.184.147-.404.219-.623.219Zm-747.693-9.048c-.227,0-.455-.077-.643-.234-.423-.355-.478-.986-.123-1.409,2.579-3.071,5.229-6.149,7.878-9.149.366-.414.998-.453,1.412-.087.414.366.453.998.087,1.412-2.637,2.987-5.277,6.052-7.846,9.111-.198.235-.481.357-.766.357Zm732.203-9.373c-.276,0-.552-.114-.749-.338-2.634-2.979-5.349-5.974-8.068-8.901-.376-.405-.353-1.037.052-1.413.403-.376,1.035-.354,1.413.052,2.731,2.939,5.457,5.946,8.102,8.938.366.414.327,1.045-.087,1.411-.19.168-.427.251-.662.251Zm-716.257-8.688c-.244,0-.488-.088-.68-.267-.405-.375-.428-1.008-.053-1.413,2.714-2.925,5.513-5.867,8.319-8.745.385-.395,1.019-.404,1.414-.018.396.385.403,1.019.018,1.414-2.794,2.866-5.582,5.796-8.285,8.708-.197.212-.465.32-.733.32Zm699.866-8.949c-.26,0-.52-.101-.716-.301-2.788-2.856-5.648-5.713-8.501-8.493-.396-.386-.403-1.019-.018-1.414.386-.396,1.021-.403,1.414-.019,2.864,2.792,5.736,5.661,8.536,8.528.386.396.378,1.028-.018,1.414-.194.19-.446.285-.698.285Zm-683.051-8.293c-.26,0-.52-.101-.716-.302-.386-.395-.378-1.028.018-1.414,2.869-2.799,5.809-5.598,8.739-8.319.405-.376,1.038-.352,1.414.052.375.405.353,1.038-.052,1.414-2.918,2.709-5.847,5.497-8.704,8.285-.194.189-.446.284-.698.284Zm665.804-8.517c-.244,0-.487-.088-.68-.267-2.928-2.716-5.927-5.429-8.914-8.064-.414-.365-.454-.998-.089-1.412.366-.415,1-.452,1.411-.088,3.001,2.647,6.013,5.371,8.951,8.098.405.375.429,1.008.054,1.413-.197.212-.465.32-.733.32Zm-648.161-7.866c-.277,0-.552-.114-.75-.338-.366-.414-.327-1.046.087-1.412,2.999-2.649,6.073-5.298,9.137-7.873.423-.354,1.054-.3,1.409.122.355.423.301,1.054-.122,1.409-3.051,2.564-6.113,5.202-9.1,7.841-.19.168-.426.25-.662.25Zm630.093-8.072c-.227,0-.454-.077-.642-.234-3.051-2.561-6.183-5.123-9.308-7.615-.432-.344-.502-.974-.157-1.405.345-.431.973-.502,1.405-.158,3.138,2.503,6.281,5.076,9.345,7.646.423.355.479.986.123,1.409-.197.236-.48.357-.767.357Zm-611.667-7.411c-.293,0-.584-.128-.782-.376-.345-.432-.274-1.061.157-1.405,3.122-2.494,6.322-4.986,9.513-7.408.44-.334,1.067-.248,1.401.192.334.44.248,1.067-.192,1.401-3.177,2.413-6.365,4.895-9.474,7.378-.184.147-.405.219-.624.219Zm592.826-7.618c-.21,0-.423-.066-.604-.203-3.182-2.412-6.438-4.816-9.676-7.146-.448-.322-.55-.947-.228-1.396.322-.449.947-.551,1.396-.228,3.252,2.339,6.521,4.753,9.717,7.175.439.333.526.961.192,1.401-.196.26-.495.396-.798.396Zm-573.662-6.928c-.311,0-.617-.144-.812-.416-.323-.448-.222-1.073.227-1.396,3.242-2.336,6.561-4.666,9.864-6.924.458-.311,1.079-.194,1.39.261.312.456.195,1.078-.261,1.39-3.29,2.249-6.595,4.569-9.824,6.896-.177.127-.381.188-.583.188Zm554.091-7.15c-.194,0-.391-.056-.562-.174-3.289-2.245-6.661-4.485-10.023-6.658-.464-.3-.597-.919-.297-1.383.299-.463.917-.597,1.383-.297,3.376,2.183,6.762,4.432,10.064,6.686.456.311.574.933.263,1.389-.193.284-.508.437-.827.437Zm-534.237-6.421c-.328,0-.649-.161-.84-.457-.3-.463-.168-1.083.296-1.383,3.352-2.171,6.781-4.332,10.192-6.423.471-.289,1.086-.141,1.375.33.289.471.141,1.086-.33,1.375-3.396,2.083-6.812,4.234-10.15,6.396-.168.109-.356.161-.542.161Zm513.984-6.67c-.178,0-.358-.047-.521-.147-3.416-2.089-6.897-4.159-10.348-6.152-.479-.276-.643-.888-.366-1.366.276-.479.889-.643,1.366-.366,3.465,2.001,6.961,4.08,10.391,6.178.472.288.62.904.332,1.375-.189.308-.518.478-.854.478Zm-493.489-5.894c-.345,0-.681-.179-.866-.499-.277-.478-.114-1.089.364-1.366,3.447-1.997,6.978-3.983,10.494-5.905.484-.266,1.093-.087,1.357.398.265.484.087,1.092-.398,1.357-3.502,1.914-7.018,3.893-10.45,5.881-.158.091-.331.135-.5.135Zm472.599-6.175c-.162,0-.325-.039-.478-.122-3.5-1.907-7.082-3.801-10.646-5.629-.491-.252-.686-.854-.434-1.346s.857-.686,1.346-.434c3.579,1.835,7.176,3.737,10.69,5.652.485.264.664.872.399,1.356-.182.333-.524.521-.879.521Zm-451.513-5.347c-.363,0-.713-.198-.89-.542-.253-.491-.06-1.094.432-1.347,3.543-1.823,7.167-3.63,10.771-5.373.499-.242,1.095-.032,1.335.465s.032,1.095-.465,1.335c-3.589,1.735-7.198,3.535-10.726,5.35-.146.075-.303.111-.457.111Zm430.036-5.666c-.146,0-.293-.032-.433-.099-3.594-1.73-7.268-3.443-10.92-5.09-.503-.227-.728-.819-.5-1.323.226-.503.816-.727,1.322-.5,3.668,1.654,7.356,3.374,10.965,5.112.498.24.707.837.467,1.335-.172.357-.529.566-.901.566Zm-408.414-4.784c-.38,0-.744-.218-.912-.587-.228-.503-.004-1.096.499-1.324,3.625-1.641,7.332-3.264,11.019-4.825.508-.214,1.095.022,1.311.531.215.508-.022,1.095-.531,1.311-3.672,1.554-7.364,3.171-10.973,4.806-.134.061-.274.089-.412.089Zm386.402-5.142c-.129,0-.261-.025-.387-.079-3.684-1.551-7.44-3.077-11.167-4.537-.515-.202-.769-.782-.566-1.296.202-.515.783-.768,1.296-.566,3.742,1.466,7.515,2.999,11.213,4.556.509.214.748.801.534,1.31-.161.382-.532.612-.923.612Zm-364.296-4.21c-.399,0-.776-.24-.931-.634-.202-.514.05-1.095.564-1.297,3.729-1.468,7.525-2.909,11.284-4.282.519-.189,1.093.078,1.283.596.189.519-.078,1.093-.596,1.283-3.744,1.367-7.524,2.802-11.237,4.264-.121.048-.245.07-.366.07Zm341.803-4.6c-.113,0-.229-.02-.341-.061-3.758-1.364-7.589-2.7-11.387-3.971-.523-.175-.807-.742-.631-1.266.175-.523.744-.804,1.266-.631,3.813,1.276,7.66,2.618,11.434,3.988.52.188.788.762.6,1.281-.148.406-.531.659-.94.659Zm-319.179-3.662c-.417,0-.807-.264-.948-.681-.176-.523.105-1.091.628-1.267,3.795-1.279,7.659-2.527,11.485-3.71.524-.162,1.088.132,1.251.66.163.527-.132,1.087-.66,1.251-3.81,1.178-7.658,2.421-11.437,3.695-.106.036-.214.053-.319.053Zm296.257-4.009c-.097,0-.195-.015-.293-.044-3.808-1.168-7.688-2.306-11.534-3.381-.531-.148-.842-.7-.693-1.232.148-.533.701-.841,1.232-.694,3.861,1.08,7.759,2.222,11.581,3.395.528.162.825.722.663,1.25-.132.43-.528.707-.956.707Zm-273.247-3.106c-.437,0-.838-.288-.962-.729-.15-.532.16-1.084.691-1.234,3.847-1.084,7.768-2.137,11.656-3.128.538-.135,1.08.188,1.216.722.137.535-.187,1.08-.722,1.216-3.872.988-7.777,2.036-11.607,3.115-.091.026-.182.038-.272.038Zm250.051-3.378c-.081,0-.164-.01-.246-.031-3.861-.976-7.794-1.917-11.688-2.797-.538-.122-.877-.657-.755-1.196.122-.539.656-.875,1.196-.755,3.909.884,7.858,1.829,11.736,2.81.535.135.859.679.725,1.214-.115.453-.522.755-.969.755Zm-226.713-2.573c-.456,0-.868-.314-.974-.777-.123-.539.214-1.075.752-1.198,3.896-.889,7.865-1.744,11.798-2.539.544-.11,1.069.24,1.178.782.11.542-.24,1.069-.782,1.178-3.917.792-7.87,1.643-11.75,2.529-.075.017-.15.025-.224.025Zm203.221-2.739c-.065,0-.131-.006-.197-.02-3.906-.781-7.881-1.524-11.813-2.208-.544-.095-.908-.613-.813-1.157s.604-.906,1.157-.814c3.948.687,7.939,1.433,11.862,2.218.541.108.893.635.784,1.177-.095.475-.513.804-.979.804Zm-179.614-2.033c-.476,0-.898-.341-.983-.827-.096-.543.268-1.062.812-1.158,3.948-.696,7.955-1.35,11.91-1.945.539-.085,1.055.293,1.138.84.082.546-.294,1.056-.84,1.138-3.939.593-7.929,1.245-11.861,1.938-.059.01-.117.015-.175.015Zm155.887-2.095c-.049,0-.098-.003-.147-.011-3.941-.585-7.948-1.128-11.91-1.615-.548-.067-.938-.566-.87-1.115.066-.547.562-.935,1.114-.871,3.979.489,8.002,1.035,11.959,1.622.547.081.924.59.843,1.136-.074.496-.501.853-.988.853Zm-132.071-1.49c-.497,0-.927-.37-.991-.876-.068-.548.32-1.048.868-1.116,3.963-.496,7.998-.95,11.992-1.349.551-.056,1.04.346,1.095.896.055.55-.346,1.04-.896,1.095-3.978.397-7.996.85-11.943,1.343-.042.005-.084.008-.125.008Zm108.166-1.449c-.032,0-.065-.001-.099-.005-3.971-.388-7.999-.731-11.974-1.021-.551-.04-.965-.519-.925-1.07.04-.551.524-.954,1.069-.925,3.992.291,8.037.635,12.024,1.025.55.054.951.542.897,1.092-.051.517-.485.903-.994.903Zm-84.2-.946c-.519,0-.957-.4-.996-.925-.042-.551.372-1.031.922-1.072,3.995-.3,8.048-.553,12.044-.754.557-.018,1.021.397,1.049.949.028.551-.397,1.021-.948,1.048-3.98.2-8.017.453-11.996.75-.025.002-.051.003-.076.003Zm60.178-.802c-.017,0-.032,0-.049,0-3.985-.191-8.026-.335-12.011-.429-.552-.013-.989-.471-.977-1.023.013-.553.522-1,1.023-.976,4.001.093,8.058.238,12.06.43.552.027.978.495.951,1.047-.025.536-.468.952-.998.952Zm-36.122-.404c-.541,0-.985-.431-.999-.975-.014-.552.422-1.011.974-1.025,4.005-.103,8.065-.156,12.067-.161h0c.552,0,1,.447,1,.999s-.447,1-.999,1.001c-3.986.004-8.03.058-12.019.16-.009,0-.018,0-.026,0Z" fill="#292a2e"></path>
      <circle cx="560.356" cy="526.297" r="283.52" fill="#367cff" opacity=".1"></circle>
      <g>
        <circle cx="982.57" cy="300.429" r="123.628" fill="#fff"></circle>
        <circle cx="982.57" cy="300.429" r="123.628" fill="#367cff" opacity=".1"></circle>
        <g>
          <rect x="903.796" y="238.867" width="173.257" height="123.125" rx="13.896" ry="13.896" transform="translate(1919.325 756.876) rotate(-170.706)" fill="#262626"></rect>
          <g>
            <rect x="925.479" y="247.362" width="29.533" height="21.948" rx="5.685" ry="5.685" transform="translate(54.068 -148.466) rotate(9.294)" fill="#fff"></rect>
            <path d="m956.197,252.294l-.832,5.083-9.874-1.616-1.332-1.853.964-5.893,9.065,1.483c1.327.217,2.226,1.469,2.009,2.796Z" fill="#0cbc8b"></path>
            <path d="m954.271,264.066l-.832,5.083c-.217,1.327-1.469,2.226-2.796,2.009l-9.065-1.483.99-6.052,1.827-1.173,9.874,1.616Z" fill="#0cbc8b"></path>
            <path d="m938.753,246.972l-.964,5.893-1.694,1.358-9.874-1.616.832-5.083c.217-1.327,1.469-2.226,2.796-2.009l8.905,1.457Z" fill="#0cbc8b"></path>
            <path d="m936.198,262.58l-.99,6.052-8.905-1.457c-1.327-.217-2.226-1.469-2.009-2.796l.832-5.083,9.874,1.616,1.199,1.668Z" fill="#0cbc8b"></path>
          </g>
          <path d="m1056.633,348.874c-1.147,7.008-7.819,11.803-14.826,10.656-3.026-.495-5.551-2.053-7.494-4.17-2.476-2.858-3.814-6.675-3.162-10.656.652-3.982,3.162-7.332,6.394-9.093,2.516-1.387,5.406-2.059,8.432-1.564,7.008,1.147,11.803,7.819,10.656,14.826Z" fill="#fff"></path>
          <path d="m1029.534,354.578c-2.516,1.387-5.406,2.059-8.432,1.564-7.008-1.147-11.803-7.819-10.656-14.826,1.147-7.008,7.819-11.803,14.826-10.656,3.026.495,5.551,2.053,7.494,4.17-3.258,1.92-5.112,5.214-5.764,9.196-.652,3.982.03,7.855,2.532,10.553Z" fill="#0cbc8b"></path>
          <rect x="920.456" y="286.692" width="30.496" height="4.75" rx="2.375" ry="2.375" transform="translate(58.971 -147.329) rotate(9.294)" fill="#fff"></rect>
          <rect x="957.875" y="292.816" width="30.496" height="4.75" rx="2.375" ry="2.375" transform="translate(60.452 -153.292) rotate(9.294)" fill="#fff"></rect>
          <rect x="995.295" y="298.94" width="30.496" height="4.75" rx="2.375" ry="2.375" transform="translate(61.932 -159.255) rotate(9.294)" fill="#fff"></rect>
          <rect x="1032.715" y="305.064" width="30.496" height="4.75" rx="2.375" ry="2.375" transform="translate(63.412 -165.219) rotate(9.294)" fill="#fff"></rect>
        </g>
      </g>
      <g>
        <circle cx="127.111" cy="708.666" r="127.111" fill="#fff"></circle>
        <circle cx="127.111" cy="708.666" r="127.111" fill="#367cff" opacity=".1"></circle>
        <g>
          <path d="m183.167,697.71H51.948c-2.441,0-4.42,1.979-4.42,4.42l8.596,95.399c0,2.441,1.979,4.42,4.42,4.42h122.623c2.441,0,4.42-1.979,4.42-4.42v-95.399c0-2.441-1.979-4.42-4.42-4.42Z" fill="#292a2e"></path>
          <g id="file">
            <path d="m193.186,649.77l-5.512,124.408c-.077,1.749-1.558,3.103-3.306,3.026l-113.268-5.019c-1.749-.077-3.103-1.558-3.026-3.306l6.542-147.636c.077-1.749,1.558-3.103,3.306-3.026l90.315,4.002-1.028,23.191c-.078,1.769,1.292,3.267,3.062,3.345l22.916,1.015Z" fill="#558fff"></path>
            <path d="m193.186,649.77l-5.512,124.408c-.077,1.749-1.558,3.103-3.306,3.026l-113.268-5.019c-1.749-.077-3.103-1.558-3.026-3.306l6.542-147.636c.077-1.749,1.558-3.103,3.306-3.026l90.315,4.002-1.049,23.677c-.066,1.501,1.096,2.771,2.597,2.838l23.402,1.037Z" fill="#fff" opacity=".4"></path>
            <g>
              <path d="m88.466,659.18l89.18,3.951" fill="#fff"></path>
              <path d="m177.647,663.631c-.008,0-.015,0-.022,0l-89.18-3.951c-.276-.012-.49-.246-.478-.521.012-.276.26-.494.521-.478l89.18,3.951c.276.012.49.246.478.521-.012.269-.233.478-.499.478Z" fill="#fafafa"></path>
            </g>
            <g>
              <path d="m87.857,672.927l89.18,3.951" fill="#fff"></path>
              <path d="m177.038,677.379c-.008,0-.015,0-.022,0l-89.181-3.952c-.276-.012-.49-.246-.478-.521.012-.276.271-.484.521-.478l89.181,3.952c.276.012.49.246.478.521-.012.269-.233.478-.499.478Z" fill="#fafafa"></path>
            </g>
            <g>
              <path d="m87.248,686.674l89.18,3.951" fill="#fff"></path>
              <path d="m176.429,691.126c-.008,0-.015,0-.022,0l-89.18-3.952c-.276-.012-.49-.246-.478-.521.012-.276.265-.491.521-.478l89.18,3.952c.276.012.49.246.478.521-.012.269-.233.478-.499.478Z" fill="#fafafa"></path>
            </g>
            <g>
              <path d="m86.639,700.421l89.18,3.951" fill="#fff"></path>
              <path d="m175.82,704.873c-.008,0-.015,0-.022,0l-89.18-3.952c-.276-.012-.49-.246-.478-.521.012-.276.275-.498.521-.478l89.18,3.952c.276.012.49.246.478.521-.012.269-.233.478-.499.478Z" fill="#fafafa"></path>
            </g>
            <g>
              <path d="m86.03,714.169l89.18,3.951" fill="#fff"></path>
              <path d="m175.21,718.62c-.008,0-.015,0-.022,0l-89.18-3.951c-.276-.012-.49-.246-.478-.521.012-.276.27-.488.521-.478l89.18,3.951c.276.012.49.246.478.521-.012.269-.233.478-.499.478Z" fill="#fafafa"></path>
            </g>
            <g>
              <path d="m85.421,727.916l40.037,1.774" fill="#fff"></path>
              <path d="m125.458,730.19c-.008,0-.015,0-.022,0l-40.037-1.774c-.276-.012-.49-.246-.478-.521.012-.276.263-.495.521-.478l40.037,1.774c.276.012.49.246.478.521-.012.269-.233.478-.499.478Z" fill="#fafafa"></path>
            </g>
            <path d="m193.186,649.77l-22.775-1.009c-1.847-.082-3.278-1.646-3.196-3.493l1.021-23.05,24.95,27.552Z" fill="#367cff" opacity=".7"></path>
          </g>
          <g id="file-2" data-name="file">
            <path d="m175.323,657.55l9.908,124.135c.139,1.745-1.162,3.272-2.907,3.411l-113.02,9.021c-1.745.139-3.272-1.162-3.411-2.907l-11.758-147.312c-.139-1.745,1.162-3.272,2.907-3.411l90.117-7.193,1.847,23.14c.141,1.765,1.686,3.082,3.452,2.941l22.866-1.825Z" fill="#558fff"></path>
            <path d="m175.323,657.55l9.908,124.135c.139,1.745-1.162,3.272-2.907,3.411l-113.02,9.021c-1.745.139-3.272-1.162-3.411-2.907l-11.758-147.312c-.139-1.745,1.162-3.272,2.907-3.411l90.117-7.193,1.848,23.148c.141,1.761,1.682,3.075,3.443,2.934l22.873-1.826Z" fill="#fff" opacity=".73"></path>
            <g>
              <path d="m72.569,679.832l88.985-7.102" fill="#fff"></path>
              <path d="m72.569,680.332c-.258,0-.477-.198-.498-.46-.022-.275.184-.516.459-.538l88.985-7.103c.268-.016.516.184.538.459.022.275-.184.516-.459.538l-88.985,7.103c-.013,0-.027.001-.04.001Z" fill="#fafafa"></path>
            </g>
            <g>
              <path d="m73.664,693.549l88.985-7.102" fill="#fff"></path>
              <path d="m73.663,694.049c-.258,0-.477-.198-.498-.46-.022-.275.184-.516.459-.538l88.985-7.102c.269-.018.516.184.538.459.022.275-.184.516-.459.538l-88.985,7.102c-.013,0-.027.001-.04.001Z" fill="#fafafa"></path>
            </g>
            <g>
              <path d="m74.759,707.266l88.985-7.102" fill="#fff"></path>
              <path d="m74.758,707.767c-.258,0-.477-.198-.498-.46-.022-.275.184-.516.459-.538l88.985-7.103c.27-.02.516.183.538.459.022.275-.184.516-.459.538l-88.985,7.103c-.013,0-.027.001-.04.001Z" fill="#fafafa"></path>
            </g>
            <g>
              <path d="m75.854,720.983l88.985-7.102" fill="#fff"></path>
              <path d="m75.853,721.483c-.258,0-.477-.198-.498-.46-.022-.275.184-.516.459-.538l88.984-7.103c.271-.022.516.183.538.459.022.275-.184.516-.459.538l-88.984,7.103c-.013,0-.027.001-.04.001Z" fill="#fafafa"></path>
            </g>
            <g>
              <path d="m76.948,734.7l88.985-7.102" fill="#fff"></path>
              <path d="m76.948,735.201c-.258,0-.477-.198-.498-.46-.022-.275.184-.516.459-.538l88.985-7.103c.272-.024.516.184.538.459.022.275-.184.516-.459.538l-88.985,7.103c-.013,0-.027.001-.04.001Z" fill="#fafafa"></path>
            </g>
            <g>
              <path d="m78.043,748.417l39.949-3.189" fill="#fff"></path>
              <path d="m78.043,748.917c-.258,0-.477-.198-.498-.46-.022-.275.184-.516.459-.538l39.949-3.188c.271-.019.516.183.538.459.022.275-.184.516-.459.538l-39.949,3.188c-.013,0-.027.001-.04.001Z" fill="#fafafa"></path>
            </g>
            <path d="m175.323,657.55l-22.725,1.814c-1.843.147-3.456-1.228-3.604-3.071l-1.836-22.999,28.164,24.256Z" fill="#fff" opacity=".3"></path>
          </g>
          <path d="m162.448,712.114v3.298c0,2.441-1.979,4.42-4.42,4.42h-88.937c-2.243,0-4.13,1.68-4.39,3.908l-8.546,73.277c-.306,2.626,1.746,4.932,4.39,4.932h131.488c2.268,0,4.168-1.717,4.397-3.973l8.679-85.416c.265-2.604-1.78-4.867-4.397-4.867h-33.843c-2.441,0-4.42,1.979-4.42,4.42Z" fill="#0cbc8b"></path>
        </g>
      </g>
      <g>
        <circle cx="851.056" cy="876.955" r="139.368" fill="#fff"></circle>
        <circle cx="851.056" cy="876.955" r="139.368" fill="#367cff" opacity=".1"></circle>
        <g>
          <path d="m765.493,838.572c-.956,0-1.731-.775-1.731-1.731v-32.059c0-9.107,7.408-16.516,16.516-16.516h32.07c.956,0,1.731.775,1.731,1.731s-.776,1.731-1.731,1.731h-32.07c-7.198,0-13.053,5.856-13.053,13.053v32.059c0,.956-.776,1.731-1.731,1.731Z" fill="#292a2e"></path>
          <path d="m812.347,970.247h-32.07c-9.107,0-16.516-7.408-16.516-16.515v-32.059c0-.956.776-1.731,1.731-1.731s1.731.775,1.731,1.731v32.059c0,7.197,5.855,13.052,13.053,13.052h32.07c.956,0,1.731.775,1.731,1.731s-.776,1.731-1.731,1.731Z" fill="#292a2e"></path>
          <path d="m944.022,838.572c-.956,0-1.731-.775-1.731-1.731v-32.059c0-7.197-5.855-13.053-13.053-13.053h-32.07c-.956,0-1.731-.775-1.731-1.731s.776-1.731,1.731-1.731h32.07c9.107,0,16.516,7.409,16.516,16.516v32.059c0,.956-.776,1.731-1.731,1.731Z" fill="#292a2e"></path>
          <path d="m929.238,970.247h-32.07c-.956,0-1.731-.775-1.731-1.731s.776-1.731,1.731-1.731h32.07c7.198,0,13.053-5.855,13.053-13.052v-32.059c0-.956.776-1.731,1.731-1.731s1.731.775,1.731,1.731v32.059c0,9.107-7.408,16.515-16.516,16.515Z" fill="#292a2e"></path>
          <g>
            <path d="m838.096,938.759c-.611,0-1.205-.325-1.52-.9-.46-.839-.152-1.891.687-2.351,18.991-10.41,10.918-32.117,10.565-33.036-.343-.892.101-1.894.993-2.238.891-.344,1.892.099,2.238.99.097.253,9.537,25.443-12.132,37.32-.264.145-.549.214-.831.214Z" fill="#0cbc8b"></path>
            <path d="m847.115,947.731c-.628,0-1.234-.343-1.541-.941-.437-.85-.103-1.893.746-2.331.964-.5,23.206-12.446,15.957-43.787-.869-3.758-3.287-8.496-7.464-10.524-3.075-1.493-6.698-1.282-10.769.63-5.409,2.543-4.962,8.934-4.447,16.334.626,8.958,1.334,19.111-9.773,22.814-6.82,2.273-11.008.198-13.32-1.942-7.856-7.273-6.622-25.956-3.178-39.746,3.683-14.744,18.091-28.818,38.553-27.175,28.99,2.322,41.005,19.112,40.171,56.142-.021.956-.798,1.753-1.771,1.692-.956-.021-1.713-.814-1.692-1.77.794-35.201-9.922-50.445-36.985-52.612-18.512-1.481-31.587,11.234-34.916,24.562-4.169,16.691-3.296,31.305,2.171,36.366,2.398,2.221,5.627,2.614,9.872,1.199,8.561-2.855,8.03-10.47,7.415-19.288-.555-7.943-1.127-16.157,6.428-19.709,5.063-2.379,9.689-2.585,13.755-.612,5.275,2.561,8.275,8.322,9.324,12.859,7.876,34.045-17.487,47.514-17.744,47.647-.254.13-.524.192-.79.192Z" fill="#0cbc8b"></path>
            <path d="m873.424,934.948c-.168,0-.337-.024-.506-.076-.914-.279-1.431-1.246-1.151-2.161,6.633-21.771,4.966-40.302-4.46-49.571-5.765-5.669-13.938-7.178-23.016-4.245-22.838,7.376-17.396,38.811-17.339,39.128.171.941-.452,1.842-1.392,2.014-.932.17-1.842-.45-2.014-1.39-.063-.347-6.051-34.736,19.681-43.046,10.368-3.349,19.779-1.546,26.508,5.072,10.362,10.19,12.359,30.022,5.343,53.049-.227.747-.913,1.228-1.655,1.228Z" fill="#0cbc8b"></path>
            <path d="m891.788,871.93c-.56,0-1.11-.272-1.444-.774-8.119-12.238-17.015-13.824-29.328-16.021-4.301-.767-9.174-1.636-14.5-3.053-17.354-4.618-30.223-18.363-30.762-18.946-.649-.701-.608-1.796.094-2.446.701-.65,1.796-.608,2.447.093.125.136,12.748,13.598,29.112,17.952,5.185,1.38,9.984,2.236,14.218,2.991,12.664,2.259,22.667,4.043,31.605,17.516.529.796.311,1.871-.486,2.4-.294.195-.627.289-.956.289Z" fill="#0cbc8b"></path>
            <path d="m810.49,869.908c-.768,0-1.469-.515-1.673-1.293-.243-.924.31-1.871,1.234-2.114,4.432-1.165,15.8-5.448,15.18-11.195-.762-7.06-13.26-8.942-13.386-8.96-.946-.136-1.603-1.013-1.468-1.959.135-.946,1.012-1.606,1.957-1.469.625.088,15.29,2.286,16.34,12.016,1.047,9.707-15.818,14.412-17.744,14.917-.147.038-.294.057-.44.057Z" fill="#0cbc8b"></path>
            <path d="m817.146,859.272c-.054,0-.109-.002-.163-.007l-6.043-.567c-.953-.09-1.653-.934-1.562-1.886.089-.953.953-1.645,1.885-1.562l6.043.567c.953.09,1.653.934,1.562,1.886-.083.897-.839,1.57-1.721,1.57Z" fill="#0cbc8b"></path>
            <path d="m895.32,856.07c-.502,0-.999-.217-1.341-.635-6.611-8.086-20.408-10.436-31.495-12.325-1.073-.183-2.124-.362-3.145-.542-12.427-2.19-20.247-7.54-20.574-7.767-.786-.544-.981-1.622-.436-2.407.543-.786,1.619-.982,2.408-.439.074.051,7.567,5.153,19.204,7.203,1.013.179,2.058.356,3.125.538,11.656,1.986,26.162,4.457,33.594,13.546.605.741.496,1.831-.245,2.437-.321.263-.709.391-1.095.391Z" fill="#0cbc8b"></path>
            <path d="m888.78,838.28c-.365,0-.734-.115-1.047-.353-4.074-3.101-8.729-3.621-14.623-4.28-3.792-.424-8.092-.906-13.023-2.155-.927-.235-1.488-1.177-1.254-2.103.234-.928,1.181-1.487,2.103-1.254,4.703,1.191,8.876,1.658,12.559,2.07,6.171.69,11.499,1.286,16.334,4.966.761.579.909,1.666.329,2.426-.34.448-.857.683-1.379.683Z" fill="#0cbc8b"></path>
            <path d="m834.526,831.086c-.262,0-.526-.059-.777-.185-.312-.157-7.673-3.918-9.86-9.871-.329-.897.131-1.892,1.028-2.222.9-.327,1.893.13,2.223,1.029,1.711,4.66,8.104,7.94,8.168,7.973.852.431,1.195,1.472.764,2.326-.304.603-.913.951-1.547.951Z" fill="#0cbc8b"></path>
            <path d="m854.383,828.944c-.114,0-.228-.011-.344-.034-8.756-1.759-19.428-12.018-19.877-12.454-.687-.666-.703-1.761-.038-2.448.666-.687,1.763-.703,2.447-.039.104.1,10.392,9.988,18.151,11.546.937.188,1.544,1.101,1.356,2.039-.166.822-.888,1.391-1.695,1.391Z" fill="#0cbc8b"></path>
            <path d="m877.801,823.972c-17.98,0-26.7-8.967-27.073-9.361-.658-.693-.63-1.79.064-2.448.692-.656,1.784-.63,2.445.061.13.135,8.709,8.803,26.144,8.26.968-.027,1.754.722,1.783,1.678.029.956-.721,1.755-1.677,1.784-.57.017-1.134.026-1.686.026Z" fill="#0cbc8b"></path>
          </g>
        </g>
      </g>
      <g>
        <g>
          <path d="m705.397,391.797c-54.417,0-104.67-17.998-145.041-48.382-40.371,30.384-90.624,48.382-145.04,48.382-4.296,0-8.591-.105-12.834-.343v90.967c.053,81.77,32.598,157.11,104.037,196.875l53.837,29.883,53.837-29.883c71.44-39.765,103.984-115.105,104.037-196.875v-90.967c-4.242.237-8.538.343-12.833.343Z" fill="#fff"></path>
          <path d="m560.356,710.894l-54.565-30.287c-34.612-19.266-61.326-47.3-79.401-83.325-16.595-33.074-25.38-72.792-25.408-114.861v-92.554l1.584.089c4.039.226,8.329.34,12.75.34,52.502,0,102.344-16.626,144.138-48.081l.902-.679.902.679c41.794,31.455,91.637,48.081,144.139,48.081,4.422,0,8.711-.115,12.749-.34l1.584-.089v92.553c-.027,42.07-8.812,81.788-25.407,114.862-18.075,36.024-44.789,64.059-79.4,83.324l-54.566,30.288Zm-156.374-317.86v89.387c.057,87.785,37.696,159.066,103.267,195.564l53.107,29.478,53.109-29.479c65.568-36.497,103.208-107.778,103.265-195.564v-89.386c-3.624.174-7.429.263-11.333.263-52.782,0-102.908-16.595-145.041-48.008-42.133,31.412-92.258,48.008-145.04,48.008-3.904,0-7.708-.088-11.334-.263Z" fill="#292a2e"></path>
        </g>
        <g id="lock">
          <g>
            <path d="m598.326,461.447v35.21c0,2.93-2.39,5.31-5.31,5.31s-5.31-2.38-5.31-5.31v-35.21c0-13.67-12.27-24.8-27.35-24.8s-27.35,11.13-27.35,24.8v37.81c0,2.92-2.38,5.31-5.31,5.31s-5.31-2.39-5.31-5.31v-37.81c0-19.53,17.03-35.42,37.97-35.42s37.97,15.89,37.97,35.42Z" fill="#292a2e"></path>
            <path d="m598.326,496.657c0,2.93-2.39,5.31-5.31,5.31s-5.31-2.38-5.31-5.31v-35.21c0-13.67-12.27-24.8-27.35-24.8s-27.35,11.13-27.35,24.8v37.81c0,2.92-2.38,5.31-5.31,5.31s-5.31-2.39-5.31-5.31v-37.81c0-19.53,17.03-35.42,37.97-35.42s37.97,15.89,37.97,35.42v35.21Z" fill="#292a2e"></path>
          </g>
          <rect x="500.015" y="492.716" width="120.683" height="114.897" rx="10.521" ry="10.521" fill="#367cff"></rect>
          <path d="m550.437,540.873c0,3.935,2.281,7.307,5.588,8.927v15.242c0,2.414,1.951,4.331,4.331,4.331,2.38,0,4.331-1.918,4.331-4.331v-15.242c3.306-1.62,5.588-4.993,5.588-8.927,0-5.488-4.431-9.919-9.919-9.919s-9.919,4.431-9.919,9.919Z" fill="#262626"></path>
        </g>
      </g>
      <g>
        <circle cx="288.665" cy="127.111" r="127.111" fill="#fff"></circle>
        <circle cx="288.665" cy="127.111" r="127.111" fill="#367cff" opacity=".1"></circle>
        <g>
          <rect id="gra6_b" x="210.616" y="152.327" width="7.586" height="37.847" rx="1.338" ry="1.338" transform="translate(428.819 342.501) rotate(-180)" fill="#367cff" opacity=".8"></rect>
          <rect id="gra6_b-2" data-name="gra6_b" x="310.621" y="99.347" width="7.586" height="90.827" rx="1.338" ry="1.338" transform="translate(628.827 289.521) rotate(-180)" fill="#367cff" opacity=".8"></rect>
          <rect id="gra6_b-3" data-name="gra6_b" x="343.955" y="99.347" width="7.586" height="90.827" rx="1.338" ry="1.338" transform="translate(695.497 289.521) rotate(-180)" fill="#367cff" opacity=".8"></rect>
          <rect id="gra6_b-4" data-name="gra6_b" x="243.951" y="122.46" width="7.586" height="67.714" rx="1.338" ry="1.338" transform="translate(495.489 312.634) rotate(-180)" fill="#367cff" opacity=".8"></rect>
          <rect id="gra6_b-5" data-name="gra6_b" x="277.286" y="134.977" width="7.586" height="55.197" rx="1.338" ry="1.338" transform="translate(562.158 325.151) rotate(-180)" fill="#367cff" opacity=".8"></rect>
          <rect id="gra6_b-6" data-name="gra6_b" x="218.203" y="83.732" width="7.586" height="106.442" rx="1.338" ry="1.338" transform="translate(443.992 273.905) rotate(-180)" fill="#367cff" opacity=".5"></rect>
          <rect id="gra6_b-7" data-name="gra6_b" x="351.542" y="83.732" width="7.586" height="106.442" rx="1.338" ry="1.338" transform="translate(710.669 273.905) rotate(-180)" fill="#367cff" opacity=".5"></rect>
          <rect id="gra6_b-8" data-name="gra6_b" x="318.207" y="122.46" width="7.586" height="67.714" rx="1.338" ry="1.338" transform="translate(644 312.634) rotate(-180)" fill="#367cff" opacity=".5"></rect>
          <rect id="gra6_b-9" data-name="gra6_b" x="284.872" y="154.62" width="7.586" height="35.554" rx="1.338" ry="1.338" transform="translate(577.331 344.794) rotate(-180)" fill="#367cff" opacity=".5"></rect>
          <rect id="gra6_b-10" data-name="gra6_b" x="251.537" y="114.528" width="7.586" height="75.645" rx="1.338" ry="1.338" transform="translate(510.661 304.702) rotate(-180)" fill="#367cff" opacity=".5"></rect>
          <rect id="gra6_b-11" data-name="gra6_b" x="359.128" y="114.033" width="7.586" height="76.141" rx="1.338" ry="1.338" transform="translate(725.842 304.206) rotate(-180)" fill="#367cff" opacity=".2"></rect>
          <rect id="gra6_b-12" data-name="gra6_b" x="325.793" y="142.413" width="7.586" height="47.761" rx="1.338" ry="1.338" transform="translate(659.173 332.586) rotate(-180)" fill="#367cff" opacity=".2"></rect>
          <rect id="gra6_b-13" data-name="gra6_b" x="292.458" y="121.964" width="7.586" height="68.209" rx="1.338" ry="1.338" transform="translate(592.503 312.138) rotate(-180)" fill="#367cff" opacity=".2"></rect>
          <rect id="gra6_b-14" data-name="gra6_b" x="259.124" y="121.964" width="7.586" height="68.209" rx="1.338" ry="1.338" transform="translate(525.834 312.138) rotate(-180)" fill="#367cff" opacity=".2"></rect>
          <rect id="gra6_b-15" data-name="gra6_b" x="225.789" y="88.379" width="7.586" height="101.795" rx="1.338" ry="1.338" transform="translate(459.164 278.553) rotate(-180)" fill="#367cff" opacity=".2"></rect>
        </g>
        <path d="m381.704,190.21h-184.132c-.552,0-1-.448-1-1v-118.957c0-.552.448-1,1-1s1,.448,1,1v117.957h183.132c.552,0,1,.448,1,1s-.448,1-1,1Z" fill="#292a2e"></path>
      </g>
    </g>
  </g>
</svg>