<svg id="Layer_2" data-name="Layer 2" xmlns="http://www.w3.org/2000/svg" viewBox="0 0 937.838 763.676" style="width: 100%; height: 100%;">
  <g id="Layer_2-2" data-name="Layer 2">
    <g>
      <path d="m899.45,496.567c-44.118-110.888-158.156-192.268-184.684-314.262C697.678,54.74,507.644,2.566,404.381,69.971c-163.621,106.803-24.575,177.068-345.383,429.757-79.215,62.395-17.112,177.167,23.271,212.796,29.735,26.234,108.646,63.654,178.467,47.046,134.603-32.016,209.715-59.976,270.038-65.577,152.049-14.117,387.501-6.24,368.675-197.426Z" fill="#f4f4f4"></path>
      <g>
        <g>
          <path d="m536.46,473.11c-1.533.716-2.398,1.082-2.406,1.085-.429.181-.63.676-.449,1.106.136.322.449.516.778.516.109,0,.22-.021.328-.067.036-.015.898-.38,2.464-1.112.423-.197.605-.699.407-1.122-.197-.423-.7-.605-1.122-.407Z" fill="#292a2e"></path>
          <path d="m477.86,221.385c-1.77-.135-3.542-.262-5.313-.383-.46-.026-.868.32-.9.785-.031.465.32.868.785.9,1.767.12,3.533.248,5.299.382.022.002.044.002.065.002.437,0,.807-.337.841-.78.036-.465-.313-.871-.778-.906Z" fill="#292a2e"></path>
          <path d="m358.694,214.385c-1.748-.34-3.486-.707-5.165-1.093-.455-.105-.907.179-1.012.634s.179.907.634,1.012c1.697.39,3.454.762,5.221,1.105.054.01.109.016.162.016.396,0,.75-.28.828-.684.089-.458-.21-.901-.668-.99Z" fill="#292a2e"></path>
          <path d="m384.908,217.5l-.126-.007c-1.731-.09-3.463-.201-5.149-.33-.462-.031-.87.312-.906.778-.036.465.313.871.778.906,1.699.13,3.445.241,5.183.331l.138.007c.014.001.028.001.042.001.448,0,.821-.351.843-.803.023-.466-.336-.862-.802-.884Z" fill="#292a2e"></path>
          <path d="m345.863,211.319c-1.702-.488-3.398-1.01-5.042-1.552-.446-.146-.92.095-1.066.537-.146.443.095.92.537,1.066,1.664.548,3.382,1.077,5.104,1.572.078.022.156.033.233.033.367,0,.705-.241.811-.612.128-.448-.131-.916-.579-1.045Z" fill="#292a2e"></path>
          <path d="m398.167,218.073c-1.787-.065-3.557-.134-5.305-.207-.488-.022-.86.343-.879.808-.019.466.343.86.809.879,1.751.073,3.523.142,5.314.207.01,0,.021,0,.031,0,.452,0,.826-.358.843-.813.017-.466-.347-.858-.813-.874Z" fill="#292a2e"></path>
          <path d="m333.393,207.058c-1.64-.659-3.269-1.356-4.843-2.075-.422-.194-.925-.007-1.118.417-.194.424-.007.925.417,1.118,1.598.73,3.251,1.439,4.914,2.107.103.041.21.061.315.061.334,0,.651-.201.783-.53.174-.433-.036-.925-.469-1.098Z" fill="#292a2e"></path>
          <path d="m371.743,216.402c-1.748-.205-3.51-.437-5.239-.689-.46-.068-.891.252-.957.713-.067.461.252.89.713.957,1.745.255,3.524.489,5.287.696.033.004.066.006.099.006.423,0,.787-.316.837-.746.054-.463-.277-.883-.74-.937Z" fill="#292a2e"></path>
          <path d="m464.569,220.5c-1.772-.102-3.542-.199-5.311-.29-.458-.032-.863.334-.886.8-.024.465.334.862.8.886,1.765.091,3.532.188,5.301.29.016,0,.033.001.049.001.444,0,.816-.346.843-.796.027-.465-.329-.864-.794-.892Z" fill="#292a2e"></path>
          <path d="m451.29,219.831c-1.775-.078-3.547-.151-5.313-.221-.011,0-.023,0-.034,0-.451,0-.825.356-.843.811-.018.466.344.859.81.877,1.764.069,3.533.143,5.305.221.013,0,.025,0,.038,0,.449,0,.823-.354.843-.807.02-.466-.341-.86-.806-.881Z" fill="#292a2e"></path>
          <path d="m438.006,219.316c-1.779-.061-3.55-.12-5.314-.176-.471-.009-.856.352-.871.817-.015.466.352.856.817.871,1.762.056,3.532.114,5.308.175.01,0,.02,0,.03,0,.453,0,.827-.359.843-.815.016-.466-.348-.857-.814-.873Z" fill="#292a2e"></path>
          <path d="m321.495,201.441c-1.546-.851-3.072-1.746-4.538-2.661-.397-.247-.917-.126-1.163.269-.247.396-.126.917.269,1.163,1.491.931,3.045,1.842,4.617,2.708.129.071.269.105.407.105.298,0,.586-.158.74-.437.225-.408.076-.922-.332-1.147Z" fill="#292a2e"></path>
          <path d="m411.441,218.506c-1.784-.053-3.554-.108-5.311-.163-.446-.001-.856.351-.871.817-.015.466.351.856.817.871,1.757.056,3.528.11,5.314.163h.026c.454,0,.83-.361.844-.819.014-.466-.353-.855-.819-.869Z" fill="#292a2e"></path>
          <path d="m296.316,100.98c.932-1.461,1.923-2.929,2.945-4.364.271-.38.182-.907-.197-1.177-.379-.271-.907-.183-1.177.197-1.039,1.458-2.046,2.951-2.995,4.436-.251.393-.135.915.258,1.166.141.089.298.133.453.133.279,0,.552-.138.713-.391Z" fill="#292a2e"></path>
          <path d="m282.486,138.556c.021.002.042.002.063.002.438,0,.809-.338.841-.782.126-1.72.324-3.472.588-5.209.07-.461-.247-.892-.708-.962-.463-.067-.892.247-.962.708-.27,1.78-.473,3.576-.602,5.34-.034.465.315.87.78.904Z" fill="#292a2e"></path>
          <path d="m283.77,150.841c-.231-1.711-.392-3.464-.479-5.211-.023-.466-.428-.829-.885-.801-.466.023-.825.419-.801.885.089,1.795.254,3.596.492,5.353.057.424.419.732.836.732.038,0,.076-.003.114-.008.462-.062.786-.487.724-.95Z" fill="#292a2e"></path>
          <path d="m286.596,118.772c-.441-.15-.921.085-1.072.526-.582,1.704-1.108,3.431-1.563,5.133-.12.45.147.913.598,1.034.073.019.146.029.218.029.373,0,.715-.249.815-.627.445-1.666.96-3.355,1.529-5.023.151-.441-.085-.921-.525-1.072Z" fill="#292a2e"></path>
          <path d="m285.319,158.532c-.122-.45-.584-.717-1.035-.595-.45.122-.717.585-.595,1.035.465,1.723,1.012,3.448,1.627,5.129.125.342.449.555.793.555.096,0,.194-.017.29-.052.438-.16.663-.645.503-1.083-.598-1.635-1.13-3.313-1.582-4.989Z" fill="#292a2e"></path>
          <path d="m631.11,329.691c.285,1.732.533,3.488.738,5.219.051.429.415.745.837.745.033,0,.067-.002.1-.006.463-.055.794-.475.739-.938-.208-1.756-.46-3.537-.749-5.294-.076-.46-.512-.776-.97-.696-.46.076-.772.51-.696.97Z" fill="#292a2e"></path>
          <path d="m629.581,321.93c.089.391.437.656.822.656.062,0,.126-.007.19-.022.454-.104.738-.557.634-1.012-.392-1.709-.829-3.453-1.3-5.182-.122-.45-.585-.714-1.036-.593-.45.123-.716.587-.593,1.036.464,1.708.896,3.429,1.284,5.117Z" fill="#292a2e"></path>
          <path d="m288.915,112.943c.113.051.231.076.348.076.321,0,.628-.184.769-.496.712-1.57,1.49-3.159,2.314-4.722.217-.413.059-.923-.354-1.14-.412-.218-.923-.06-1.14.354-.839,1.593-1.632,3.212-2.358,4.812-.193.425-.004.925.42,1.117Z" fill="#292a2e"></path>
          <path d="m297.239,181.632c-.294-.362-.825-.419-1.187-.126-.362.294-.419.825-.126,1.187,1.109,1.372,2.297,2.732,3.531,4.044.166.177.39.265.615.265.207,0,.415-.076.578-.229.34-.319.356-.853.037-1.194-1.204-1.28-2.365-2.609-3.447-3.948Z" fill="#292a2e"></path>
          <path d="m307.465,85.17c-.346-.312-.88-.286-1.192.061-1.202,1.33-2.379,2.691-3.497,4.044-.297.359-.247.892.113,1.189.158.13.348.193.537.193.243,0,.484-.104.651-.307,1.103-1.334,2.263-2.676,3.448-3.988.313-.346.286-.88-.06-1.192Z" fill="#292a2e"></path>
          <path d="m310.459,194.316c-1.405-1.062-2.78-2.171-4.086-3.298-.354-.304-.886-.265-1.191.088-.305.353-.265.886.088,1.191,1.334,1.15,2.736,2.283,4.171,3.367.152.115.331.17.508.17.255,0,.508-.115.674-.335.281-.372.207-.901-.165-1.183Z" fill="#292a2e"></path>
          <path d="m290.062,170.704c-.215-.414-.725-.575-1.139-.36-.414.215-.575.724-.36,1.138.819,1.577,1.718,3.146,2.672,4.663.16.255.435.395.716.395.154,0,.309-.042.448-.13.395-.248.514-.769.265-1.164-.929-1.477-1.805-3.005-2.602-4.542Z" fill="#292a2e"></path>
          <path d="m491.103,222.546c-1.761-.176-3.524-.343-5.29-.501-.465-.034-.875.301-.917.766s.301.874.766.916c1.76.158,3.518.324,5.273.499.029.003.057.004.085.004.428,0,.796-.325.839-.76.046-.464-.292-.878-.756-.924Z" fill="#292a2e"></path>
          <path d="m316.916,75.858c-.313-.346-.847-.372-1.192-.06-1.325,1.198-2.635,2.429-3.893,3.658-.333.326-.34.86-.014,1.194.166.169.384.254.604.254.213,0,.426-.08.59-.241,1.243-1.214,2.536-2.43,3.845-3.613.346-.313.373-.847.06-1.192Z" fill="#292a2e"></path>
          <path d="m424.722,218.896l-5.313-.155c-.457-.011-.855.354-.869.82-.013.466.354.855.82.868l5.311.155h.026c.454,0,.83-.361.844-.819.014-.466-.353-.855-.819-.869Z" fill="#292a2e"></path>
          <path d="m622.069,297.419c.111,0,.225-.022.333-.069.428-.184.626-.681.442-1.109-.697-1.62-1.432-3.258-2.185-4.868-.197-.423-.7-.606-1.122-.407-.423.197-.605.7-.407,1.122.745,1.594,1.472,3.216,2.163,4.821.137.32.449.511.776.511Z" fill="#292a2e"></path>
          <path d="m617.166,405.197c-.397-.245-.917-.12-1.161.279-.914,1.491-1.871,2.986-2.845,4.443-.259.388-.155.912.233,1.171.144.096.307.142.469.142.272,0,.54-.132.703-.375.986-1.475,1.956-2.989,2.881-4.5.244-.397.119-.917-.279-1.161Z" fill="#292a2e"></path>
          <path d="m600.156,426.542c-1.17,1.296-2.382,2.597-3.604,3.866-.323.336-.313.871.023,1.194.164.157.375.236.586.236.221,0,.443-.087.609-.259,1.234-1.283,2.459-2.597,3.64-3.906.312-.346.285-.88-.061-1.192s-.88-.284-1.192.061Z" fill="#292a2e"></path>
          <path d="m615.619,284.979c.15.289.445.455.75.455.132,0,.265-.031.389-.096.414-.216.575-.726.359-1.139-.812-1.559-1.661-3.139-2.525-4.696-.226-.407-.741-.554-1.148-.329-.408.226-.555.74-.329,1.148.857,1.544,1.699,3.111,2.504,4.656Z" fill="#292a2e"></path>
          <path d="m598.053,258.615c-.346-.312-.88-.285-1.192.061-.312.346-.285.88.061,1.192,1.308,1.181,2.58,2.405,3.782,3.637.165.17.385.255.604.255.213,0,.425-.079.589-.24.334-.325.341-.86.015-1.194-1.226-1.258-2.524-2.507-3.859-3.712Z" fill="#292a2e"></path>
          <path d="m609.753,416.205c-.372-.28-.901-.207-1.183.165-1.047,1.387-2.143,2.785-3.258,4.155-.294.361-.239.893.122,1.188.157.127.345.189.532.189.245,0,.488-.106.656-.311,1.128-1.386,2.237-2.8,3.295-4.203.281-.372.207-.902-.165-1.183Z" fill="#292a2e"></path>
          <path d="m607.217,268.344c-.291-.365-.822-.426-1.186-.136-.365.29-.426.821-.136,1.186,1.087,1.369,2.137,2.789,3.118,4.22.163.239.428.367.697.367.165,0,.331-.048.477-.148.384-.264.483-.789.219-1.174-1.004-1.464-2.077-2.916-3.188-4.315Z" fill="#292a2e"></path>
          <path d="m633.258,355.164c-.466-.031-.87.315-.904.78-.128,1.747-.302,3.509-.516,5.236-.057.463.271.884.734.942.036.004.071.006.105.006.42,0,.784-.313.837-.74.218-1.755.394-3.546.524-5.321.034-.465-.315-.87-.78-.904Z" fill="#292a2e"></path>
          <path d="m634.195,342.703c-.022-.466-.413-.849-.884-.802-.465.022-.825.418-.802.884.086,1.755.13,3.527.131,5.267,0,.466.378.844.845.844.466,0,.844-.378.844-.845-.001-1.767-.045-3.566-.133-5.348Z" fill="#292a2e"></path>
          <path d="m631.568,368.309c-.46-.092-.902.204-.995.661-.344,1.708-.736,3.434-1.168,5.131-.114.452.159.911.611,1.026.07.018.139.026.208.026.377,0,.721-.254.818-.637.438-1.724.837-3.479,1.187-5.214.092-.457-.204-.902-.661-.994Z" fill="#292a2e"></path>
          <path d="m626.804,309.814c.088,0,.179-.014.267-.044.442-.147.682-.625.534-1.068-.554-1.664-1.153-3.358-1.778-5.034-.162-.437-.65-.66-1.086-.496-.437.162-.659.649-.496,1.086.618,1.658,1.21,3.332,1.758,4.978.118.354.447.578.801.578Z" fill="#292a2e"></path>
          <path d="m623.393,393.483c-.421-.199-.925-.018-1.124.404-.743,1.576-1.535,3.163-2.354,4.716-.217.412-.059.923.353,1.14.126.066.261.098.393.098.303,0,.596-.164.747-.451.83-1.576,1.633-3.185,2.387-4.784.199-.422.018-.925-.404-1.124Z" fill="#292a2e"></path>
          <path d="m628.247,381.143c-.442-.149-.92.091-1.068.533-.551,1.647-1.152,3.313-1.79,4.952-.169.435.046.924.481,1.093.101.039.204.058.306.058.338,0,.657-.205.787-.539.647-1.665,1.258-3.357,1.817-5.03.148-.442-.091-.92-.533-1.068Z" fill="#292a2e"></path>
          <path d="m504.307,224.05c-1.756-.227-3.517-.443-5.283-.649-.455-.059-.882.277-.936.741-.054.463.277.882.741.936,1.759.206,3.514.421,5.262.647.037.005.073.007.109.007.418,0,.781-.311.836-.736.06-.462-.267-.886-.729-.945Z" fill="#292a2e"></path>
          <path d="m548.216,467.06c-1.552.865-3.12,1.713-4.661,2.522-.413.216-.572.727-.355,1.14.151.288.445.452.748.452.132,0,.266-.031.392-.097,1.553-.815,3.135-1.67,4.699-2.542.407-.227.553-.741.326-1.149-.227-.407-.743-.553-1.149-.326Z" fill="#292a2e"></path>
          <path d="m556.014,237.052c.351,0,.679-.221.799-.571.151-.441-.084-.921-.525-1.072-1.655-.566-3.362-1.122-5.072-1.654-.443-.137-.919.111-1.057.556s.111.918.556,1.057c1.695.526,3.386,1.077,5.026,1.638.09.031.183.046.273.046Z" fill="#292a2e"></path>
          <path d="m544.125,232.57c.121-.45-.146-.914-.597-1.034-1.693-.455-3.431-.9-5.165-1.323-.454-.113-.91.167-1.02.62-.111.453.167.91.62,1.02,1.721.42,3.446.862,5.127,1.313.073.02.147.029.219.029.372,0,.714-.249.815-.626Z" fill="#292a2e"></path>
          <path d="m530.569,228.441c-1.709-.361-3.467-.716-5.223-1.052-.459-.088-.9.212-.988.67-.088.458.212.9.67.988,1.746.335,3.493.687,5.192,1.046.059.013.118.019.176.019.39,0,.741-.273.825-.67.097-.456-.195-.904-.651-1Z" fill="#292a2e"></path>
          <path d="m559.589,460.276c-1.477.941-2.991,1.88-4.501,2.793-.399.241-.527.76-.286,1.159.159.263.437.408.723.408.148,0,.299-.04.436-.122,1.522-.919,3.047-1.866,4.535-2.814.393-.25.509-.773.259-1.165-.25-.393-.771-.51-1.165-.259Z" fill="#292a2e"></path>
          <path d="m517.478,225.984c-1.711-.284-3.48-.563-5.261-.83-.461-.075-.891.248-.96.709-.069.461.248.891.709.96,1.772.266,3.534.544,5.235.826.047.008.093.012.139.012.405,0,.763-.293.832-.706.076-.46-.235-.895-.695-.972Z" fill="#292a2e"></path>
          <path d="m581.015,444.753c-1.352,1.115-2.74,2.23-4.127,3.314-.367.287-.432.818-.145,1.185.167.213.415.324.665.324.182,0,.365-.059.52-.179,1.398-1.093,2.798-2.217,4.16-3.341.36-.297.411-.829.114-1.188s-.828-.41-1.188-.114Z" fill="#292a2e"></path>
          <path d="m590.923,435.996c-1.264,1.199-2.572,2.406-3.888,3.585-.347.311-.377.845-.066,1.192.167.186.397.281.629.281.201,0,.402-.071.563-.215,1.329-1.19,2.649-2.407,3.925-3.618.338-.321.352-.855.031-1.194-.321-.338-.855-.352-1.194-.031Z" fill="#292a2e"></path>
          <path d="m591.35,255.03c.256,0,.509-.116.675-.336.28-.372.206-.902-.167-1.182-1.398-1.053-2.866-2.096-4.361-3.1-.389-.262-.912-.156-1.172.23-.26.387-.157.912.23,1.172,1.47.987,2.913,2.012,4.287,3.046.152.115.33.17.507.17Z" fill="#292a2e"></path>
          <path d="m570.541,452.839c-1.409,1.02-2.864,2.046-4.327,3.052-.384.264-.482.79-.217,1.174.164.238.428.366.696.366.165,0,.332-.048.478-.148,1.473-1.013,2.94-2.048,4.36-3.076.378-.273.462-.801.189-1.179s-.801-.462-1.179-.189Z" fill="#292a2e"></path>
          <path d="m580.256,247.777c.294,0,.579-.154.734-.427.23-.405.089-.921-.317-1.151-1.517-.863-3.1-1.716-4.704-2.537-.413-.211-.923-.048-1.136.367s-.048.923.367,1.136c1.582.81,3.143,1.651,4.638,2.502.132.075.275.111.417.111Z" fill="#292a2e"></path>
          <path d="m568.389,241.849c.325,0,.635-.189.774-.506.188-.427-.007-.925-.434-1.112-1.597-.7-3.255-1.392-4.929-2.055-.433-.17-.923.04-1.096.474-.172.434.041.925.474,1.096,1.655.656,3.295,1.339,4.873,2.031.11.049.225.072.338.072Z" fill="#292a2e"></path>
          <path d="m323.968,68.874c-.71.555-1.411,1.113-2.104,1.673-.362.293-.419.825-.126,1.188.167.206.411.313.657.313.186,0,.374-.062.53-.188.686-.555,1.381-1.107,2.083-1.656.367-.287.432-.818.145-1.185-.286-.367-.817-.432-1.185-.145Z" fill="#292a2e"></path>
        </g>
        <g>
          <polygon points="320.114 44.495 323.793 71.477 417.004 7.701 320.114 44.495" fill="#0cbc8b"></polygon>
          <polygon points="320.114 44.495 323.793 71.477 417.004 7.701 320.114 44.495" fill="#0a0a0a" opacity=".2"></polygon>
          <polygon points="326.246 51.854 323.793 71.477 394.928 21.193 326.246 51.854" fill="#0cbc8b"></polygon>
          <polygon points="326.246 51.854 323.793 71.477 394.928 21.193 326.246 51.854" fill="#0a0a0a" opacity=".1"></polygon>
          <polygon points="309.076 31.004 417.004 7.701 348.322 82.516 326.246 51.854 417.004 7.701 320.114 44.495 309.076 31.004" fill="#0cbc8b"></polygon>
        </g>
      </g>
      <g>
        <path d="m898.942,125.671c0,37.538-16.461,71.226-42.546,94.243-22.166,19.557-51.251,31.414-83.125,31.414-15.526,0-30.396-2.818-44.122-7.965-8.984-3.362-17.479-7.728-25.346-12.973-15.121-10.044-27.927-23.268-37.496-38.738v-.014c-11.857-19.181-18.692-41.779-18.692-65.967,0-69.413,56.259-125.671,125.658-125.671s125.672,56.258,125.672,125.671Z" fill="#fff"></path>
        <path d="m898.942,125.671c0,37.538-16.461,71.226-42.546,94.243-22.166,19.557-51.251,31.414-83.125,31.414-15.526,0-30.396-2.818-44.122-7.965-8.984-3.362-17.479-7.728-25.346-12.973-15.121-10.044-27.927-23.268-37.496-38.738v-.014c-11.857-19.181-18.692-41.779-18.692-65.967,0-69.413,56.259-125.671,125.658-125.671s125.672,56.258,125.672,125.671Z" fill="#367cff" opacity=".2"></path>
        <g>
          <g>
            <path id="sk" d="m757.95,107.151c.139-.018,1.684,25.608,31.454,23.374,20.61-1.544,27.958-23.41,28.431-23.41-2.222-.472-4.968-1.189-6.059-1.435-3.626-.817-8.152-3.809-9.198-10.111-.603-3.632.42-22.216.105-25.891l-31.636,7.061c.442,7.762,3.536,25.756-7.308,28.941-1.804.527-3.748,1.011-5.788,1.471Z" fill="#ff9e85"></path>
            <path id="sh" d="m770.602,98.326c.448-1.43.715-2.674.952-4.91.424-3.999.198-7.674-.207-11.42,6.391-.851,12.527-3.539,17.485-7.66.587,2.169,3.818,11.649,2.924,13.711-1.691,3.897-9.636,10.28-21.153,10.28Z" fill="#0c0c0c" opacity=".22"></path>
            <g>
              <path d="m751.79,49.401s-9.078-6.746-11.432-22.414c-1.823-12.131,9.438-4.347,9.438-4.347,0,0-1.227-8.748,5.156-7.926,6.384.821,10.028,9.993,10.028,9.993" fill="#0c0c0c"></path>
              <path d="m787.935,15.491s31.68,3.157,20.557,46.136l-2.8.209-5.683.424" fill="#0c0c0c"></path>
              <path d="m776.599,92.767c12.472-1.213,27.351-9.21,27.44-26.153l.08-15.288c.089-16.943-8.738-30.724-24.691-30.808h0c-15.953-.084-27.948,13.589-28.037,30.532l-.035,6.768c-.007,1.393.126,3.894.559,6.942.864,6.082,2.201,15.329,6.38,21.559,3.945,5.882,10.336,7.222,18.305,6.447Z" fill="#ff9e85"></path>
              <path d="m766.763,75.337c-.262-.017-.457.225-.398.48.767,3.315,3.862,5.232,7.318,4.71s6.011-3.276,5.804-6.655c-.017-.27-.292-.443-.541-.337-.793.337-2.65.978-6.155,1.482-3.011.432-5.121.379-6.029.321Z" fill="#fff"></path>
              <g>
                <g>
                  <circle id="e1_eye" cx="759.203" cy="60.329" r="1.739" transform="translate(-.819 109.273) rotate(-8.228)" fill="#0a0a0a"></circle>
                  <g id="e1_n">
                    <path d="m770.999,71.141c.348-.05.609-.357.595-.716-.015-.384-.338-.683-.723-.668l-3.702.146,1.191-7.609c.059-.38-.2-.736-.58-.795-.379-.059-.735.2-.795.58l-1.322,8.445c-.032.206.03.415.168.57s.339.241.547.233l4.548-.179c.025,0,.049-.003.072-.007Z" fill="#0a0a0a"></path>
                  </g>
                  <path id="e1_eb" d="m774.18,50.642c-.091.537,1.886,1.034,4.611,1.358s5.174.487,5.259-.186c.107-.85-2.126-2.491-4.852-2.814s-4.875.798-5.018,1.642Z" fill="#0a0a0a"></path>
                  <circle id="e1_eye-2" data-name="e1_eye" cx="777.376" cy="59.019" r="1.74" transform="translate(-.444 111.861) rotate(-8.228)" fill="#0a0a0a"></circle>
                </g>
                <path id="e1_eb-2" data-name="e1_eb" d="m753.322,54.026c.135.528,2.143.18,4.766-.63,2.623-.81,4.927-1.654,4.731-2.303-.247-.82-2.683-1.513-5.306-.703s-4.403,2.807-4.191,3.637Z" fill="#0a0a0a"></path>
              </g>
              <path d="m803.02,71.771c4.848.025,8.805-5.14,8.83-9.988.025-4.848-3.891-7.542-8.739-7.567l-2.515,3.235-1.745,14.299,4.168.022Z" fill="#ff9e85"></path>
              <path d="m799.616,63.874c-.808.079-1.528-.506-1.611-1.314-.532-5.217-2.772-22.716-8.962-23.928-4.849-.95-16.537,6.005-27.427,4.012-4.764-.872-9.272.34-9.714,2.59-.175.891-3.234-11.873,4.143-21.632,5.874-7.77,25.268-10.097,34.118-7.63,24.505,6.832,13.957,39.291,13.957,39.291l-.883,7.1c-.085.686-.634,1.22-1.322,1.287l-2.299.224Z" fill="#0c0c0c"></path>
              <ellipse cx="766.355" cy="22.278" rx="9.769" ry="6.637" transform="translate(593.394 769.192) rotate(-78.627)" fill="#0c0c0c"></ellipse>
            </g>
          </g>
          <path d="m859.06,167.604c-1.242,13.252-2.106,34.204-2.664,52.311-22.166,19.557-51.251,31.414-83.125,31.414-15.526,0-30.396-2.818-44.122-7.965-.684-11.313-1.758-28.862-2.762-44.736-1.004-15.847-1.939-30.033-2.33-34.693-1.576-18.497-6.975-30.661-3.655-40.914.893-2.804,2.441-5.468,4.91-8.077,8.328-8.802,29.81-9.444,38.445-9.444.153,0-1.744,19.99,26.602,18.651,20.827-.976,21.706-18.651,21.706-18.651,0,0,10.309.67,17.172,1.59,11.229,1.521,18.637,5.329,24.523,11.215,5.482,5.496,8.83,11.425,5.301,49.298Z" fill="#367cff"></path>
          <path d="m764.287,144.476l-37.901,54.138v.014l-20.283,28.959c-.711,1.004-1.479,1.939-2.302,2.804-15.121-10.044-27.927-23.268-37.496-38.738v-.014l15.345-73.347,36.687,7.672,2.065-2.943v-.014l4.352-6.208,39.533,27.676Z" fill="#367cff"></path>
          <rect x="684.403" y="187.058" width="43.708" height=".689" transform="translate(409.472 855.112) rotate(-80.896)" fill="#0c0c0c"></rect>
          <g>
            <path d="m725.323,113.152c1.123-1.364.885-3.402-.555-4.466-1.35-.998-3.277-.635-4.344.661l-1.526,2.013,4.466-18.058c.388-1.568-.569-3.153-2.137-3.541-1.568-.388-3.153.569-3.541,2.137l-1.86,7.52c-.018-.012-.039-.02-.06-.028.063-1.591-1.111-3.064-2.857-3.215-1.494-.129-2.843.917-3.252,2.359l-.287,1.015c-.036.005-.069.018-.1.036.069-1.46-.903-2.825-2.409-3.168-1.637-.372-3.256.733-3.713,2.348l-.708,2.5c-.034-.087-.105-.158-.204-.179-.055-.012-.108-.003-.157.015-.288-1.249-1.329-2.279-2.771-2.404-1.494-.129-2.843.917-3.252,2.36l-3.86,13.548c-1.732,6.121.422,12.682,5.447,16.583l7.909,6.141,19.77-24.178Z" fill="#ff9e85"></path>
            <g fill="none" opacity=".2">
              <path d="m713.663,107.022c-.004-.033-.003-.067.006-.102l1.721-7.325c.037-.156.194-.254.35-.217.157.038.253.194.217.351l-1.721,7.325c-.037.156-.194.254-.35.217-.122-.029-.208-.131-.222-.248Z" fill="#0c0c0c"></path>
              <path d="m707.727,105.619c-.004-.034-.002-.069.006-.104l1.398-5.747c.038-.156.196-.252.352-.214s.252.195.214.352l-1.398,5.747c-.038.156-.196.252-.352.214-.121-.029-.206-.131-.22-.248Z" fill="#0c0c0c"></path>
              <path d="m701.289,104.136c-.004-.032-.003-.064.005-.097l.596-2.729c.034-.157.19-.257.346-.222.158.035.257.189.222.346l-.596,2.729c-.034.157-.19.257-.346.222-.124-.027-.212-.13-.227-.249Z" fill="#0c0c0c"></path>
            </g>
          </g>
          <g>
            <path d="m697.933,164.72h24.442c2.691,0,4.71-2.461,4.185-5.1l-9.67-48.597c-.4-2.01-2.172-3.451-4.221-3.434l-23.82.201c-2.656.022-4.647,2.44-4.159,5.051l9.048,48.397c.378,2.019,2.14,3.483,4.194,3.483Z" fill="#262626"></path>
            <path d="m694.501,137.655c.829-1.226,2.27-1.642,3.527-1.271.009-.056.02-.113.062-.157.076-.076.176-.084.272-.062l-1.898-1.893c-1.21-1.207-1.391-3.195-.249-4.467,1.052-1.171,2.751-1.359,4.016-.571,0-.031.025-.057.034-.088l-.781-.779c-1.081-1.078-1.343-2.797-.488-4.062,1.151-1.702,3.484-1.866,4.863-.491l1.803,1.798c.008-.011.005-.026.014-.036.011-.014.033-.01.046-.021-.771-1.219-.632-2.849.429-3.913,1.218-1.393,3.391-.712,4.557.45l10.997,10.772-.335-.503-1.557-3.969c-.624-1.591.008-3.485,1.564-4.192,1.66-.754,3.591.044,4.248,1.72l9.104,22.515s-19.128,13.842-23.715,9.267l-16.029-15.986c-1.081-1.078-1.343-2.797-.488-4.062Z" fill="#ff9e85"></path>
            <g fill="none" opacity=".2">
              <path d="m716.219,135.765c-.112.111-.293.112-.407.002l-10.127-9.779c-.116-.112-.119-.296-.007-.412.096-.117.296-.119.412-.007l10.127,9.779c.116.112.119.296.007.412l-.005.005Z" fill="#0c0c0c"></path>
              <path d="m712.029,140.35c-.112.111-.293.112-.407.002l-11.302-10.914c-.116-.112-.119-.296-.007-.412.103-.105.296-.119.412-.007l11.302,10.914c.116.112.119.296.007.412l-.005.005Z" fill="#0c0c0c"></path>
              <path d="m707.52,145.343c-.112.111-.293.112-.407.002l-9.015-8.706c-.116-.112-.119-.296-.007-.412.115-.115.296-.119.412-.007l9.015,8.706c.116.112.119.296.007.412l-.005.005Z" fill="#0c0c0c"></path>
            </g>
          </g>
          <path d="m820.251,135.712l-38.768,53.077-46.397-51.922-31.505,26.152,61.233,75.354c1.311,1.684,2.94,3.308,4.749,4.629,10.465,7.644,27.213,4.667,34.857-5.798l.511-.7,54.287-72.33-38.968-28.462Z" fill="#367cff"></path>
          <path d="m783.442,247.631c-5.226,0-10.188-1.507-14.081-4.351-1.761-1.285-3.427-2.909-4.818-4.695l-61.444-75.613,32.029-26.587.221.26,46.105,54.336,32.604-47.375.568.39-33.115,48.117-46.468-54.763-30.98,25.716,61.018,75.09c1.357,1.742,2.975,3.32,4.685,4.568,4.89,3.572,11.534,4.966,18.226,3.831,6.655-1.132,12.542-4.614,16.15-9.554l.511-.7,42.42-56.083.55.416-42.416,56.079-.508.695c-3.713,5.083-9.76,8.665-16.591,9.826-1.564.266-3.127.397-4.667.397Z" fill="#0c0c0c"></path>
          <rect x="784.324" y="190.433" width=".689" height="10.223" transform="translate(49.127 531.58) rotate(-38.547)" fill="#0c0c0c"></rect>
        </g>
      </g>
      <circle cx="773.275" cy="125.668" r="125.666" fill="none"></circle>
      <g>
        <circle cx="128.115" cy="522.4" r="128.115" fill="#fff"></circle>
        <path d="m256.23,522.397c0,22.18-5.636,43.048-15.554,61.252-8.816,16.154-21.008,30.201-35.627,41.193-11.229,8.453-23.896,15.093-37.566,19.487-12.401,4.017-25.625,6.18-39.366,6.18-35.32,0-67.307-14.298-90.477-37.413C14.387,589.899.005,557.829.005,522.397.005,451.645,57.365,394.284,128.118,394.284s128.113,57.361,128.113,128.113Z" fill="#367cff" opacity=".3"></path>
        <g>
          <g>
            <circle cx="79.917" cy="481.734" r="15.257" fill="#0a0a0a"></circle>
            <path d="m67.12,450.391s-.746,27.881,29.605,38.523l1.895-49.046-31.5,10.523Z" fill="#0a0a0a"></path>
            <g>
              <path id="sk-2" data-name="sk" d="m136.982,508.352c-.14-.018-1.696,25.792-31.68,23.542-20.758-1.555-28.159-23.579-28.635-23.579,2.238-.476,6.007-1.167,7.001-1.698,3.269-1.756,7.313-3.584,8.367-9.931.607-3.659-.423-22.375-.106-26.077l31.863,7.112c-.445,7.818-3.561,25.941,7.36,29.149,1.817.531,3.775,1.018,5.83,1.482Z" fill="#ff9e85"></path>
              <path id="sh-2" data-name="sh" d="m124.239,499.463c-.451-1.441-.72-2.693-.958-4.945-.427-4.027-.2-7.73.208-11.502-6.437-.857-12.617-3.564-17.611-7.715-.592,2.185-3.846,11.733-2.945,13.809,1.703,3.925,9.705,10.354,21.305,10.354Z" fill="#0c0c0c" opacity=".22"></path>
              <path d="m119.171,492.509c-12.597.774-25.953-4.769-28.727-21.607l-5.213-15.25c-2.773-16.838,3.822-31.945,19.676-34.556h0c15.854-2.611,28.407,2.908,31.18,19.746,0,0,1.73,9.637,1.954,12.889.847,12.261.243,37.604-18.871,38.779Z" fill="#ff9e85"></path>
              <path id="e1_eb-3" data-name="e1_eb" d="m138.199,451.087c-.071.542-2.116.437-4.83-.056-2.713-.493-5.113-1.058-4.996-1.729.148-.848,2.478-1.133,5.191-.64,2.713.493,4.746,1.572,4.634,2.426Z" fill="#0a0a0a"></path>
              <g>
                <circle id="e1_eye-3" data-name="e1_eye" cx="133.683" cy="457.032" r="1.748" transform="translate(-326.401 579.801) rotate(-88.636)" fill="#0a0a0a"></circle>
                <g id="e1_n-2" data-name="e1_n">
                  <path d="m119.902,469.778c-.354-.008-.65-.283-.679-.643-.031-.385.256-.722.641-.753l3.71-.299-2.102-7.447c-.105-.372.112-.758.484-.863.371-.105.757.111.863.483l2.333,8.266c.057.201.02.417-.099.589s-.309.281-.518.298l-4.558.367c-.025.002-.049.003-.073.002Z" fill="#0a0a0a"></path>
                </g>
                <g id="e1_m">
                  <path d="m120.079,477.801c-6.321.442-8.47-3.246-8.567-3.42-.188-.337-.068-.763.268-.952.334-.188.759-.069.949.264.09.157,2.283,3.774,9.181,2.456.387-.075.746.177.818.555.072.379-.176.745-.555.818-.744.142-1.442.232-2.095.278Z" fill="#0a0a0a"></path>
                </g>
                <path id="e1_eb-4" data-name="e1_eb" d="m116.987,450.217c.155.525-1.757,1.258-4.437,1.908s-5.103,1.107-5.268.446c-.209-.835,1.805-2.041,4.485-2.691,2.68-.65,4.976-.488,5.22.337Z" fill="#0a0a0a"></path>
                <circle id="e1_eye-4" data-name="e1_eye" cx="115.256" cy="457.543" r="1.748" transform="translate(-344.9 561.878) rotate(-88.636)" fill="#0a0a0a"></circle>
              </g>
              <path d="m72.874,460.24l17.26,5.708c3.231-1.043,6.082-4.058,8.487-7.753,5.533-8.502,4.586-19.821,4.586-19.821,0,0,9.898,7.708,36.504,5.097,0,0-1.097-36.51-44.166-31.37-15.001,1.79-28.484,16.77-28.6,36.434-.081,13.78,5.93,11.705,5.93,11.705Z" fill="#0a0a0a"></path>
              <path d="m89.563,475.812c-4.818.794-9.716-1.029-10.891-8.284-.78-4.82,3.199-8.37,8.017-9.163l3.014,2.819,4.002,13.946-4.142.682Z" fill="#ff9e85"></path>
              <path d="m80.295,454.894l-.378,6.661c1.302-1.492,3.156-2.507,5.284-2.709.529-.057,1.053-.038,1.563.017,3.127,2.601.753,7.159,3.369,7.085,1.486-.042,4.953-3.465,5.815-5.619.547-1.366-3.035-6.739-2.981-8.209" fill="#0a0a0a"></path>
            </g>
          </g>
          <path d="m240.677,583.649c-8.816,16.154-21.008,30.201-35.627,41.193l-32.279-35.962-34.986-38.989,29.643-27.62,11.662,12.08,17.855,18.469,26.881-10.867,16.851,41.695Z" fill="#6b6c70"></path>
          <path d="m202.902,603.185c.033,0,.065-.005.098-.016.156-.054.238-.224.184-.38l-20.33-58.697c-.055-.156-.226-.237-.38-.185-.156.054-.238.224-.184.38l20.33,58.697c.043.124.159.201.282.201Z" fill="#0c0c0c"></path>
          <path d="m179.089,534.352c-.084,8.732-3.083,19.153-4.157,31.735-.279,3.362-1.116,11.983-2.162,22.794-1.632,17.06-3.836,39.603-5.287,55.449-12.401,4.017-25.625,6.18-39.366,6.18-35.32,0-67.307-14.298-90.477-37.413-.628-16.182-1.451-32.628-2.65-43.313-2.581-23.296-1.883-38.026,1.841-44.917,6.096-11.257,16.949-14.689,28.304-16.237,6.933-.935,17.353-1.604,17.353-1.604,0,0,.879,17.855,21.929,18.846,28.652,1.353,26.741-18.846,26.881-18.846,10.392,0,30.089,2.483,37.636,7.63,8.007,5.44,10.253,11.899,10.155,19.697Z" fill="#6b6c70"></path>
          <path d="m97.718,636.846c8.049,0,15.484-4.32,19.468-11.326l40.604-75.668-33.817-21.613-25.842,43.757-27.933-48.265-36.272,26.612,44.128,74.825c3.888,7.135,11.337,11.604,19.462,11.677.067,0,.135,0,.202,0Z" fill="#6b6c70"></path>
          <path d="m173.464,590.038c.155,0,.286-.12.297-.277l1.179-16.098c.012-.164-.112-.308-.276-.32-.151-.015-.307.111-.32.276l-1.179,16.098c-.012.164.112.308.276.32.007,0,.015,0,.022,0Z" fill="#0c0c0c"></path>
          <g>
            <path d="m193.98,552.777h-25.056c-2.759,0-4.829-2.522-4.29-5.228l9.913-49.818c.41-2.06,2.227-3.538,4.327-3.52l24.418.206c2.723.023,4.763,2.501,4.263,5.178l-9.275,49.613c-.387,2.07-2.194,3.57-4.3,3.57Z" fill="#262626"></path>
            <path d="m174.68,525.032c.85-1.257,2.327-1.683,3.616-1.303.01-.057.02-.116.064-.161.078-.078.181-.087.279-.064l-1.945-1.94c-1.241-1.237-1.426-3.276-.255-4.58,1.078-1.201,2.82-1.393,4.117-.586,0-.032.025-.059.035-.09l-.801-.799c-1.108-1.105-1.376-2.868-.5-4.164,1.18-1.745,3.572-1.913,4.985-.503l1.848,1.843c.008-.011.005-.027.015-.037.012-.014.033-.011.048-.021-.79-1.249-.648-2.92.44-4.011,1.248-1.428,3.477-.73,4.672.462l11.273,11.043-.343-.515-1.596-4.069c-.64-1.631.008-3.573,1.604-4.297,1.702-.773,3.681.046,4.355,1.763l9.333,23.081s-19.609,14.189-24.311,9.5l-16.431-16.388c-1.108-1.105-1.377-2.868-.5-4.164Z" fill="#ff9e85"></path>
            <g fill="none" opacity=".2">
              <path d="m196.943,523.094c-.115.114-.301.115-.417.002l-10.382-10.025c-.118-.115-.122-.303-.007-.422.099-.12.304-.122.422-.007l10.382,10.025c.118.115.122.303.007.422l-.005.005Z" fill="#0c0c0c"></path>
              <path d="m192.648,527.795c-.115.114-.301.115-.417.002l-11.586-11.188c-.118-.115-.122-.303-.007-.422.105-.108.304-.122.422-.007l11.586,11.188c.118.115.122.303.007.422l-.005.005Z" fill="#0c0c0c"></path>
              <path d="m188.026,532.913c-.115.114-.301.115-.417.002l-9.242-8.924c-.118-.115-.122-.303-.007-.422.118-.117.304-.122.422-.007l9.242,8.924c.118.115.122.303.007.422l-.005.005Z" fill="#0c0c0c"></path>
            </g>
          </g>
          <path d="m240.9,583.245c-.084.139-.153.265-.223.405-7.826,14.34-18.316,27.02-30.801,37.371l-26.686-77.057,35.934-14.019,21.775,53.301Z" fill="#6b6c70"></path>
          <g>
            <path d="m129.501,531.77l21.476,13.724,11.653-7.922c1.272-.862,1.859-2.516,1.251-3.929-.587-1.364-1.922-2.042-3.23-1.922,0-.057-.007-.106-.042-.155-.014-.021-.021-.042-.042-.057-.014-.014-.021-.021-.035-.028-.014-.014-.028-.021-.042-.028-.035-.014-.078-.028-.12-.028l.007-.007,2.205-1.491c1.42-.961,1.979-2.897,1.088-4.367-.82-1.357-2.459-1.859-3.859-1.321.007-.035.007-.071,0-.113l.898-.608c1.272-.862,1.851-2.509,1.244-3.922-.707-1.654-2.509-2.318-4.042-1.746h-.007c-.014-.014-.028-.035-.042-.05l6.721-4.233c1.399-.883,1.816-2.728.94-4.134-.883-1.399-2.735-1.816-4.134-.94l-16.141,10.162,1.47-2.127c.919-1.456.65-3.449-.756-4.445-1.498-1.06-3.562-.629-4.523.898l-11.936,18.791Z" fill="#ff9e85"></path>
            <g fill="none" opacity=".2">
              <path d="m151.157,522.355c.034-.007.066-.019.098-.038l6.574-4.035c.14-.086.184-.27.098-.411-.087-.141-.271-.183-.411-.098l-6.574,4.035c-.14.086-.184.27-.098.411.068.11.195.16.313.136Z" fill="#0c0c0c"></path>
              <path d="m154.434,527.68c.034-.007.068-.02.1-.04l5.142-3.212c.14-.087.182-.272.095-.411s-.271-.182-.412-.095l-5.142,3.212c-.14.087-.182.272-.095.411.068.108.194.158.312.135Z" fill="#0c0c0c"></path>
              <path d="m157.951,533.468c.032-.006.064-.018.093-.036l2.464-1.46c.142-.084.189-.267.105-.409-.084-.142-.267-.189-.409-.105l-2.464,1.46c-.142.084-.189.267-.105.409.067.112.195.165.316.141Z" fill="#0c0c0c"></path>
            </g>
          </g>
          <path d="m97.718,637.144c8.143,0,15.702-4.398,19.727-11.477l40.608-75.674c.074-.138.029-.309-.102-.393l-33.817-21.613c-.068-.044-.152-.059-.23-.039-.079.019-.146.069-.188.139l-25.584,43.32-19.161-32.764c-.083-.143-.267-.19-.408-.107-.143.083-.191.266-.107.409l19.418,33.202c.054.091.151.148.257.148h0c.106,0,.204-.056.257-.147l25.685-43.491,33.323,21.298-40.473,75.424c-3.915,6.887-11.276,11.169-19.205,11.169h-.199c-8.011-.073-15.369-4.488-19.202-11.522l-39.519-67.377c-.085-.143-.269-.19-.409-.106-.142.083-.19.266-.107.409l39.515,67.369c3.932,7.217,11.49,11.751,19.717,11.825h.205Z" fill="#0c0c0c"></path>
          <path d="m88.547,589.254c.104,0,.205-.055.26-.152l9.584-16.96c.081-.144.03-.326-.113-.407-.142-.08-.326-.031-.407.113l-9.584,16.96c-.081.144-.03.326.113.407.047.026.097.038.147.038Z" fill="#0c0c0c"></path>
        </g>
      </g>
      <circle cx="128.115" cy="522.4" r="128.115" fill="none"></circle>
      <g>
        <circle cx="707.84" cy="330.546" r="27.491" fill="#367cff"></circle>
        <path d="m721.905,330.499c0,7.768-6.297,14.064-14.064,14.064s-14.064-6.297-14.064-14.064h28.129Z" fill="#fff"></path>
        <g>
          <circle cx="697.913" cy="319.513" r="2.395" fill="#0c0c0c"></circle>
          <circle cx="717.768" cy="319.513" r="2.395" fill="#0c0c0c"></circle>
        </g>
      </g>
      <g>
        <rect x="325.117" y="93.11" width="265.697" height="541.861" rx="30.624" ry="30.624" fill="#292a2e"></rect>
        <rect x="334.809" y="102.673" width="246.314" height="522.02" rx="21.028" ry="21.028" fill="#fff"></rect>
        <path d="m407.519,98.719h100.893v10.44c0,6.231-5.059,11.289-11.289,11.289h-78.314c-6.231,0-11.289-5.059-11.289-11.289v-10.44h0Z" fill="#292a2e"></path>
      </g>
      <g>
        <rect x="426.023" y="312.909" width="25.815" height="106.216" rx="7.491" ry="7.491" transform="translate(-96.92 167.289) rotate(-19.476)" fill="#292a2e"></rect>
        <rect x="362.96" y="280.328" width="77.566" height="74.256" rx="37.128" ry="37.128" transform="translate(-82.857 152.112) rotate(-19.476)" fill="#367cff"></rect>
        <path d="m520.501,299.472l-6.29,4.489-15.83-44.761,7.369-1.018c1.741,6.46,3.838,13.21,6.277,20.108,2.652,7.5,5.512,14.617,8.474,21.181Z" fill="#367cff"></path>
        <path d="m536.242,269.731c3.108,8.788,3.792,16.56,1.532,17.359-.45.159-.982.031-1.569-.349-.003,0-.003-.002-.006,0-2.372-1.522-5.659-7.077-8.147-14.113-2.311-6.534-3.282-12.505-2.697-15.467.2-1.021.585-1.684,1.166-1.889,2.26-.799,6.614,5.674,9.721,14.46Z" fill="#367cff"></path>
        <path d="m512.076,278.437c-.017-.049-.033-.097-.051-.147-10.092-28.537-11.69-61.094-9.135-74.033-15.04,21.692-38.34,45.198-61.972,57.202-9.536,4.844-21.37,9.805-39.546,16.209l25.096,70.963c18.161-6.447,30.483-10.028,40.944-12.256,25.924-5.522,58.821-1.89,84.155,5.524-10.121-8.456-29.346-34.779-39.438-63.316-.018-.05-.035-.097-.053-.146Z" fill="#367cff"></path>
        <rect x="396.814" y="269.613" width="45.336" height="82.82" rx="2.723" ry="2.723" transform="translate(-79.697 157.658) rotate(-19.476)" fill="#292a2e"></rect>
        <rect x="396.814" y="269.613" width="45.336" height="82.82" rx="2.723" ry="2.723" transform="translate(-79.697 157.658) rotate(-19.476)" fill="#fff" opacity=".1"></rect>
        <path d="m547.794,265.641c13.575,38.384,16.561,72.326,6.691,75.816-1.967.696-4.291.134-6.852-1.525-.011.004-.015-.007-.026-.003-10.362-6.648-24.715-30.911-35.581-61.638-10.092-28.537-14.334-54.615-11.78-67.553.875-4.459,2.555-7.355,5.092-8.252,9.87-3.49,28.885,24.783,42.456,63.156Z" fill="#367cff"></path>
        <path d="m547.794,265.641c13.575,38.384,16.561,72.326,6.691,75.816-1.967.696-4.291.134-6.852-1.525-.011.004-.015-.007-.026-.003-10.362-6.648-24.715-30.911-35.581-61.638-10.092-28.537-14.334-54.615-11.78-67.553.875-4.459,2.555-7.355,5.092-8.252,9.87-3.49,28.885,24.783,42.456,63.156Z" fill="#0c0c0c" opacity=".3"></path>
        <path d="m526.536,255.313l11.253,31.82-17.288,12.34c-2.962-6.564-5.822-13.681-8.474-21.181-2.44-6.898-4.536-13.648-6.277-20.108l20.786-2.87Z" fill="#fff" opacity=".6"></path>
        <path d="m536.242,269.731c3.108,8.788,3.792,16.56,1.532,17.359-.45.159-.982.031-1.569-.349-.003,0-.003-.002-.006,0-2.372-1.522-5.659-7.077-8.147-14.113-2.311-6.534-3.282-12.505-2.697-15.467.2-1.021.585-1.684,1.166-1.889,2.26-.799,6.614,5.674,9.721,14.46Z" fill="#fff"></path>
      </g>
      <g>
        <rect x="396.511" y="464.637" width="130.714" height="53.848" rx="11.494" ry="11.494" fill="#367cff" opacity=".8"></rect>
        <path d="m527.221,506.994v5.288c0,6.346-5.145,11.491-11.491,11.491h-107.726c-6.346,0-11.491-5.145-11.491-11.491v-5.288c0,6.346,5.145,11.491,11.491,11.491h107.726c6.346,0,11.491-5.145,11.491-11.491Z" fill="#367cff"></path>
        <path d="m454.686,507.469c-.435,0-.873-.15-1.228-.454l-12.331-10.567c-.792-.679-.884-1.871-.205-2.663.68-.792,1.871-.883,2.663-.205l10.941,9.377,25.459-27.856c.704-.771,1.899-.823,2.668-.12.77.704.824,1.898.12,2.669l-26.692,29.206c-.372.407-.882.615-1.395.615Z" fill="#fff"></path>
      </g>
      <g>
        <g>
          <path d="m488.593,615.497c-6.365-7.278-5.396-18.459,2.303-24.513,7.219-5.676,17.814-4.008,23.86,2.905l8.673,10.759-27.23-97.502c-2.369-8.484,2.236-17.615,10.675-20.139,8.598-2.571,17.596,2.416,19.999,11.022l11.398,40.815c.098-.066.208-.117.322-.161-.616-8.82,5.759-17.181,15.53-18.091,7.962-.742,15.258,4.564,17.665,12.189l1.808,5.729c.195.024.38.088.551.179-.619-8.04,4.563-15.726,12.863-17.768,8.776-2.159,17.651,3.322,20.371,11.94l4.388,13.904c.174-.481.551-.879,1.086-1.014.299-.076.59-.034.863.054,1.37-6.878,6.894-12.68,14.761-13.598,8.146-.951,15.699,4.55,18.167,12.371l23.325,73.451c10.475,33.189-.236,69.415-27.076,91.572h0c-23.5,19.401-58.183,16.527-78.169-6.477l-76.134-87.627Z" fill="#ff9e85"></path>
          <g fill="none" opacity=".2">
            <path d="m551.347,580.072c.017-.183.003-.369-.047-.558l-10.611-39.774c-.227-.849-1.1-1.355-1.951-1.13-.853.231-1.35,1.104-1.128,1.953l10.611,39.774c.227.849,1.1,1.355,1.951,1.13.663-.18,1.116-.75,1.175-1.395Z" fill="#0c0c0c"></path>
            <path d="m583.576,571.43c.017-.186.002-.378-.051-.57l-8.585-31.196c-.233-.847-1.111-1.346-1.959-1.112-.848.234-1.346,1.108-1.113,1.96l8.585,31.196c.233.847,1.111,1.346,1.959,1.112.657-.18,1.105-.748,1.164-1.39Z" fill="#0c0c0c"></path>
            <path d="m618.537,562.268c.016-.174.004-.353-.042-.532l-3.708-14.827c-.212-.854-1.078-1.374-1.931-1.159-.856.215-1.376,1.077-1.159,1.931l3.708,14.827c.212.854,1.078,1.374,1.931,1.159.675-.169,1.141-.745,1.201-1.399Z" fill="#0c0c0c"></path>
          </g>
        </g>
        <path d="m529.986,683.525l160.144-50.567c7.381-2.331,15.258,1.738,17.629,9.106l11.466,35.627c2.411,7.492-1.793,15.505-9.328,17.779l-158.966,47.973c-7.06,2.131-14.568-1.552-17.204-8.44l-12.644-33.033c-2.896-7.565,1.179-16.007,8.903-18.446Z" fill="#367cff"></path>
        <path d="m529.986,683.525l160.144-50.567c7.381-2.331,15.258,1.738,17.629,9.106l11.466,35.627c2.411,7.492-1.793,15.505-9.328,17.779l-158.966,47.973c-7.06,2.131-14.568-1.552-17.204-8.44l-12.644-33.033c-2.896-7.565,1.179-16.007,8.903-18.446Z" fill="#fff" opacity=".18"></path>
      </g>
      <g>
        <path d="m937.834,501.403c0,19.362-4.785,37.608-13.238,53.608v.014c-4.059,7.686-8.956,14.842-14.591,21.371-5.733,6.668-12.22,12.666-19.334,17.869-19.013,13.922-42.476,22.138-67.837,22.138-10.002,0-19.711-1.283-28.959-3.683-14.117-3.669-27.188-9.946-38.654-18.302-12.401-9.025-22.933-20.464-30.884-33.646-10.462-17.325-16.488-37.65-16.488-59.369,0-63.512,51.474-115,114.986-115s115,51.488,115,115Z" fill="#fff"></path>
        <path d="m937.834,501.403c0,19.362-4.785,37.608-13.238,53.608v.014c-4.059,7.686-8.956,14.842-14.591,21.371-5.733,6.668-12.22,12.666-19.334,17.869-19.013,13.922-42.476,22.138-67.837,22.138-10.002,0-19.711-1.283-28.959-3.683-14.117-3.669-27.188-9.946-38.654-18.302-12.401-9.025-22.933-20.464-30.884-33.646-10.462-17.325-16.488-37.65-16.488-59.369,0-63.512,51.474-115,114.986-115s115,51.488,115,115Z" fill="#367cff" opacity=".2"></path>
        <g>
          <g>
            <path d="m878.637,429.698s3.727,20.259,8.301,25.866c13.166,16.141,18.177,29.486,8.615,41.219-9.561,11.733-79.076,20.907-87.425-2.14-7.029-19.403,2.208-22.787,2.384-39.57.079-7.594.931-23.605.931-23.605" fill="#0a0a0a"></path>
            <path id="sk-3" data-name="sk" d="m821.897,484.7c.121-.016,1.464,22.27,27.354,20.327,17.923-1.343,24.314-20.359,24.725-20.359-1.932-.411-5.187-1.008-6.045-1.466-2.822-1.516-6.314-3.094-7.224-8.575-.524-3.159.365-19.32.091-22.516l-27.512,6.141c.384,6.75,3.075,22.399-6.355,25.168-1.569.458-3.259.879-5.034,1.279Z" fill="#ff9e85"></path>
            <path id="sh-3" data-name="sh" d="m832.9,477.025c.39-1.244.622-2.326.828-4.27.368-3.477.172-6.674-.18-9.931,5.558-.74,10.894-3.078,15.206-6.662.511,1.887,3.32,10.13,2.543,11.924-1.47,3.389-8.38,8.94-18.396,8.94Z" fill="#0c0c0c" opacity=".22"></path>
            <path d="m838.23,472.454c10.892-.353,21.925-6.198,22.948-20.897l3.248-13.531c1.023-14.699-5.868-27.152-19.708-28.115h0c-13.84-.963-24.185,4.797-25.208,19.496,0,0-.708,8.425-.638,11.238.263,10.608,2.831,32.346,19.358,31.81Z" fill="#ff9e85"></path>
            <path id="e1_eb-5" data-name="e1_eb" d="m818.524,438.384c.105.461,1.855.204,4.147-.439s4.31-1.323,4.155-1.891c-.195-.717-2.222-.774-4.515-.13-2.293.643-3.952,1.735-3.788,2.46Z" fill="#0a0a0a"></path>
            <path d="m875.79,441.267l-14.745,6.005c-9.63-2.633-11.941-25.012-11.941-25.012,0,0-9.878,12.199-37.662,9.206,0,0,1.11-37.17,42.372-30.92,13.305,2.015,24.23,15.108,25.128,32.601.629,12.259-3.151,8.12-3.151,8.12Z" fill="#0a0a0a"></path>
            <path d="m862.332,455.707c4.206.293,8.269-1.67,8.692-8.002.281-4.207-3.427-6.936-7.633-7.229l-2.363,2.667-2.312,12.312,3.616.252Z" fill="#ff9e85"></path>
            <g>
              <circle id="e1_eye-5" data-name="e1_eye" cx="824.386" cy="442.954" r="1.509" transform="translate(-46.268 99.76) rotate(-6.736)" fill="#0a0a0a"></circle>
              <g id="e1_n-3" data-name="e1_n">
                <path d="m835.31,452.972c.303-.036.536-.296.532-.607-.004-.333-.278-.6-.612-.596l-3.214.043,1.205-6.572c.06-.328-.157-.642-.485-.702-.328-.06-.642.157-.703.485l-1.337,7.294c-.032.178.016.36.133.498s.289.216.469.214l3.948-.053c.021,0,.043-.002.063-.004Z" fill="#0a0a0a"></path>
              </g>
              <g id="e1_m-2" data-name="e1_m">
                <path d="m835.563,459.586c5.458.382,7.313-2.803,7.397-2.953.163-.291.059-.659-.232-.822-.289-.163-.655-.06-.82.228-.078.135-1.971,3.258-7.927,2.12-.334-.065-.644.152-.707.48-.062.327.152.644.479.706.643.123,1.245.2,1.809.24Z" fill="#0a0a0a"></path>
              </g>
              <path id="e1_eb-6" data-name="e1_eb" d="m836.689,435.921c-.091.463,1.612.939,3.969,1.282s4.476.539,4.565-.042c.112-.734-1.717-1.609-4.073-1.951s-4.317-.018-4.46.711Z" fill="#0a0a0a"></path>
              <circle id="e1_eye-6" data-name="e1_eye" cx="839.691" cy="441.444" r="1.509" transform="translate(-45.985 101.545) rotate(-6.736)" fill="#0a0a0a"></circle>
            </g>
            <path d="m857.491,435.614c.165,1.259-2.48,6.169-1.899,7.298.916,1.782,4.173,4.444,5.453,4.36,2.255-.147-.155-3.874,2.323-6.363.434-.089.883-.147,1.342-.141,1.846.001,3.521.724,4.761,1.902l-.863-5.696" fill="#0a0a0a"></path>
          </g>
          <path d="m820.016,522.243l-31.414,34.999-33.381,37.176c-12.401-9.025-22.933-20.464-30.884-33.646l18.441-45.657,24.133,9.751,16.028-16.572,10.476-10.839,26.602,24.788Z" fill="#0cbc8b"></path>
          <path d="m761.563,570.085c-.029,0-.059-.005-.088-.015-.14-.048-.214-.201-.165-.341l18.249-52.688c.049-.14.203-.213.341-.166.14.048.214.201.165.341l-18.249,52.688c-.039.111-.142.18-.253.18Z" fill="#0c0c0c"></path>
          <path d="m912.278,540.099c-1.004,9.025-1.73,22.626-2.274,36.297-5.733,6.668-12.22,12.666-19.334,17.869-19.013,13.922-42.476,22.138-67.837,22.138-10.002,0-19.711-1.283-28.959-3.683-1.255-14.047-3.585-37.957-5.273-55.477-.935-9.709-1.674-17.451-1.939-20.464-.963-11.299-3.655-20.659-3.725-28.485-.098-7.003,1.911-12.792,9.109-17.674,6.793-4.617,24.454-6.849,33.8-6.849.126,0-1.59,18.134,24.119,16.921,18.888-.893,19.683-16.921,19.683-16.921,0,0,9.36.6,15.582,1.437,10.183,1.381,19.934,4.478,25.402,14.577.405.739.753,1.576,1.074,2.511.474,1.367.865,2.929,1.158,4.729v.014c1.228,7.324,1.06,18.274-.586,33.06Z" fill="#0cbc8b"></path>
          <path d="m787.987,558.284c-.139,0-.257-.108-.267-.248l-1.058-14.45c-.01-.148.101-.276.248-.287.136-.013.275.1.287.248l1.058,14.45c.01.148-.101.276-.248.287-.006,0-.013,0-.02,0Z" fill="#0c0c0c"></path>
          <g>
            <path d="m769.572,524.837h22.491c2.476,0,4.334-2.264,3.851-4.693l-8.898-44.718c-.368-1.849-1.999-3.176-3.884-3.16l-21.918.185c-2.444.021-4.276,2.245-3.827,4.648l8.325,44.534c.347,1.858,1.969,3.205,3.86,3.205Z" fill="#262626"></path>
            <path d="m786.896,499.933c-.763-1.128-2.089-1.511-3.246-1.169-.009-.051-.018-.104-.057-.145-.07-.07-.162-.078-.25-.057l1.746-1.742c1.114-1.111,1.28-2.94.229-4.111-.968-1.078-2.531-1.25-3.695-.526,0-.029-.023-.053-.032-.081l.719-.717c.995-.992,1.236-2.574.449-3.738-1.059-1.566-3.206-1.717-4.475-.452l-1.659,1.654c-.007-.01-.004-.024-.013-.033-.01-.013-.03-.009-.043-.019.709-1.122.581-2.621-.395-3.6-1.121-1.282-3.121-.655-4.193.414l-10.119,9.912.308-.462,1.433-3.652c.574-1.464-.007-3.207-1.44-3.857-1.528-.693-3.304.041-3.909,1.583l-8.378,20.718s17.601,12.737,21.822,8.527l14.749-14.71c.995-.992,1.236-2.574.449-3.738Z" fill="#ff9e85"></path>
            <g fill="none" opacity=".2">
              <path d="m766.912,498.194c.103.102.27.103.375.002l9.319-8.999c.106-.103.109-.272.007-.379-.089-.108-.273-.109-.379-.007l-9.319,8.999c-.106.103-.109.272-.007.379l.004.004Z" fill="#0c0c0c"></path>
              <path d="m770.767,502.413c.103.102.27.103.375.002l10.4-10.043c.106-.103.109-.272.007-.379-.095-.097-.273-.109-.379-.007l-10.4,10.043c-.106.103-.109.272-.007.379l.004.004Z" fill="#0c0c0c"></path>
              <path d="m774.917,507.007c.103.102.27.103.375.002l8.296-8.011c.106-.103.109-.272.007-.379-.106-.105-.273-.109-.379-.007l-8.296,8.011c-.106.103-.109.272-.007.379l.004.004Z" fill="#0c0c0c"></path>
            </g>
          </g>
          <path d="m779.255,516.929l-24.537,70.822-10.95-2.86c-7.505-7.1-14.061-15.205-19.432-24.119-.07-.126-.153-.251-.223-.377l22.891-56.063,32.251,12.596Z" fill="#0cbc8b"></path>
          <path d="m924.595,555.011v.014c-4.059,7.686-8.956,14.842-14.591,21.371-5.733,6.668-12.22,12.666-19.334,17.869l-15.177-60.011,36.213-31.958,1.158,4.729v.014l11.732,47.973Z" fill="#0cbc8b"></path>
          <path d="m890.921,594.084c-.084.056-.167.125-.251.181-.084.056-.167.125-.251.181l-15.205-60.123c-.042-.153.056-.307.209-.349.154-.042.307.056.349.209l15.149,59.899Z" fill="#0c0c0c"></path>
        </g>
      </g>
      <circle cx="822.839" cy="501.404" r="114.999" fill="none"></circle>
      <g>
        <circle cx="202.669" cy="311.416" r="37.063" fill="#6b6c70"></circle>
        <circle cx="202.669" cy="297.592" r="15.501" fill="#fff"></circle>
        <path d="m173.259,333.98c6.778,8.815,17.432,14.497,29.412,14.497,11.98,0,22.633-5.682,29.401-14.497-7.134-8.209-17.662-13.411-29.401-13.411-11.74,0-22.268,5.201-29.412,13.411Z" fill="#fff"></path>
        <path d="m165.084,311.416c0-20.725,16.86-37.585,37.585-37.585,20.725,0,37.586,16.861,37.586,37.585,0,20.725-16.861,37.585-37.586,37.585-20.725,0-37.585-16.861-37.585-37.585Zm1.044,0c0,20.149,16.392,36.541,36.54,36.541,20.149,0,36.541-16.392,36.541-36.541,0-20.149-16.392-36.541-36.541-36.541-20.148,0-36.54,16.392-36.54,36.541Z" fill="#292a2e"></path>
      </g>
      <g>
        <circle cx="218.17" cy="713.53" r="30.01" fill="#292a2e"></circle>
        <circle cx="218.17" cy="702.337" r="12.552" fill="#fff"></circle>
        <path d="m194.356,731.801c5.489,7.138,14.115,11.738,23.815,11.738,9.7,0,18.326-4.601,23.806-11.738-5.776-6.647-14.301-10.859-23.806-10.859-9.506,0-18.03,4.212-23.815,10.859Z" fill="#fff"></path>
        <path d="m187.737,713.53c0-16.781,13.652-30.433,30.433-30.433,16.781,0,30.434,13.652,30.434,30.433,0,16.781-13.653,30.433-30.434,30.433-16.781,0-30.433-13.652-30.433-30.433Zm.846,0c0,16.315,13.273,29.588,29.587,29.588,16.315,0,29.588-13.273,29.588-29.588,0-16.315-13.273-29.588-29.588-29.588-16.314,0-29.587,13.273-29.587,29.588Z" fill="#292a2e"></path>
      </g>
    </g>
  </g>
</svg>