<svg id="Layer_2" data-name="Layer 2" xmlns="http://www.w3.org/2000/svg" viewBox="0 0 828.082 580.278" style="width: 100%; height: 100%;">
  <g id="Layer_2-2" data-name="Layer 2">
    <g>
      <g>
        <g>
          <rect x="159.388" y=".854" width="627.105" height="472.854" rx="25.607" ry="25.607" transform="translate(945.881 474.561) rotate(-180)" fill="#fff"></rect>
          <path d="m158.534,448.101V26.461c0-14.59,11.87-26.461,26.461-26.461h575.891c14.59,0,26.461,11.87,26.461,26.461v421.64c0,14.59-11.87,26.461-26.461,26.461H184.995c-14.591,0-26.461-11.87-26.461-26.461ZM184.995,1.707c-13.649,0-24.753,11.104-24.753,24.753v421.64c0,13.649,11.105,24.753,24.753,24.753h575.891c13.649,0,24.753-11.104,24.753-24.753V26.461c0-13.649-11.104-24.753-24.753-24.753H184.995Z" fill="#292a2e"></path>
        </g>
        <g>
          <path d="m721.913,275.453h-383.812c-.877,0-1.587-.711-1.587-1.587V54.826c0-.876.71-1.587,1.587-1.587s1.587.711,1.587,1.587v217.453h382.225c.877,0,1.587.711,1.587,1.587s-.71,1.587-1.587,1.587Z" fill="#0cbc8b"></path>
          <path d="m364.78,242.672h.863c25.386,0,48.614-14.283,60.069-36.937l49.226-97.348c24.975-49.39,95.568-49.211,120.292.306l48.301,96.737c11.395,22.823,34.713,37.243,60.223,37.243h0" fill="#0cbc8b" opacity=".2"></path>
          <path d="m703.755,244.054c-26.205,0-49.754-14.564-61.459-38.007l-48.301-96.737c-11.373-22.777-33.362-36.414-58.821-36.479h-.181c-25.384,0-47.362,13.513-58.822,36.179l-49.225,97.348c-11.759,23.252-35.248,37.696-61.302,37.696h-.864c-.764,0-1.382-.619-1.382-1.382s.618-1.382,1.382-1.382h.864c25.006,0,47.551-13.863,58.836-36.179l49.225-97.348c11.764-23.264,35.241-37.696,61.298-37.696h.179c26.13.066,49.612,14.63,61.285,38.007l48.301,96.737c11.234,22.501,33.837,36.479,58.987,36.479.764,0,1.382.619,1.382,1.382s-.618,1.382-1.382,1.382Z" fill="#0cbc8b"></path>
        </g>
        <g fill="none" opacity=".2">
          <path d="m324.886,326.951c3.033-4.938,6.728-9.419,11.019-13.317,1.935-1.758,4.201-4.073,6.769-4.834,1.902-.564,3.655.135,5.14,1.339,3.251,2.637,5.371,6.47,9.045,8.631,3.471,2.041,7.507,1.911,11.237.707,4.026-1.3,7.697-3.482,11.529-5.234,3.497-1.598,7.512-3.036,11.375-2.001,4.496,1.205,7.677,5.073,11.841,6.974,2.413,1.102,4.897,1.446,7.513.93,2.99-.59,5.784-2.059,8.64-3.08,12.973-4.639,26.925-6.107,40.586-4.37,1.91.243,1.892-2.759,0-3-12.316-1.566-24.942-.539-36.846,2.993-3.066.91-6.044,2.03-9.011,3.216-2.631,1.051-5.347,1.996-8.171,1.157-4.536-1.348-7.783-5.357-12.138-7.152-8.497-3.502-16.614,2.893-24.142,5.951-3.499,1.422-7.439,2.353-10.899.319-3.683-2.166-5.791-6.225-9.194-8.755-1.838-1.367-4.031-2.092-6.324-1.731-3.102.489-5.662,2.845-7.953,4.827-4.945,4.279-9.186,9.347-12.606,14.916-1.013,1.65,1.581,3.158,2.59,1.514h0Z" fill="#367cff"></path>
        </g>
        <g fill="none" opacity=".2">
          <path d="m194.337,107.33c25.552-1.387,51.129-2.311,76.715-2.764,7.31-.129,14.621-.219,21.932-.273,1.93-.014,1.934-3.014,0-3-25.589.188-51.175.838-76.74,1.96-7.304.321-14.607.68-21.908,1.076-1.92.104-1.932,3.105,0,3h0Z" fill="#367cff"></path>
          <path d="m199.823,124.707c25.204-1.449,50.428-2.543,75.663-3.275,7.139-.207,14.278-.385,21.419-.535,1.928-.041,1.934-3.041,0-3-25.24.531-50.472,1.417-75.687,2.665-7.133.353-14.265.735-21.395,1.145-1.919.11-1.932,3.111,0,3h0Z" fill="#367cff"></path>
          <path d="m199.875,145.002c25.817.967,91.809-4.576,98.995-5.672,1.902-.29,1.094-3.181-.798-2.893-25.325,3.86-90.985,5.835-98.197,5.565-1.931-.072-1.928,2.928,0,3h0Z" fill="#367cff"></path>
          <path d="m199.852,166.705c15.846-1.745,31.812-2.222,47.734-1.425,1.93.097,1.925-2.904,0-3-15.922-.797-31.888-.32-47.734,1.425-1.898.209-1.919,3.211,0,3h0Z" fill="#367cff"></path>
        </g>
        <g fill="none" opacity=".2">
          <path d="m579.645,311.584c-9.243-.186-18.491-.081-27.727.333-1.345.06-3.357-.219-3.99,1.305-.356.856-.11,2.012-.085,2.927.061,2.266.042,4.535.019,6.801-.05,4.972-.189,9.942-.214,14.914-.007,1.326-.064,2.681.081,4.001.065.588.178,1.105.718,1.452.588.378,1.451.319,2.114.358,1.098.064,2.197.114,3.297.154,9.04.329,18.099.014,27.131.595.662.043,1.294-.614,1.265-1.265-.391-8.829-.782-17.657-1.173-26.486-.056-1.275-.113-2.55-.169-3.825-.072-1.621-2.602-1.63-2.53,0,.391,8.829.782,17.657,1.173,26.486.056,1.275.113,2.55.169,3.825.422-.422.843-.843,1.265-1.265-7.399-.476-14.82-.35-22.229-.471-1.794-.029-3.588-.072-5.381-.142-.863-.034-1.725-.074-2.587-.123-.138-.008-1.11-.136-1.147-.07.511.807.715,1.038.61.692-.009-.036-.016-.072-.022-.108-.052.046.01.215-.006-.192-.01-.27-.025-.539-.033-.809-.019-.703-.02-1.407-.019-2.11.005-4.462.128-8.924.189-13.386.032-2.287.058-4.575.042-6.863-.006-.828-.016-1.655-.043-2.482-.011-.335.029-.73-.044-1.058-.032-.143-.033-.347-.031-.494l-.329.261c.373-.018.746-.036,1.119-.054,9.515-.446,19.043-.563,28.567-.371,1.628.033,1.628-2.497,0-2.53Z" fill="#367cff"></path>
          <path d="m555.753,327.322c1.353,3.41,3.422,6.503,6.242,8.877,1.313,1.106,2.414,1.414,3.924.444,1.734-1.114,3.49-2.194,5.225-3.306,4.229-2.71,8.347-5.586,12.571-8.302,2.23-1.434,4.513-2.782,6.823-4.082,1.419-.799.145-2.985-1.277-2.184-4.494,2.53-8.764,5.362-13.047,8.227-3.163,2.116-6.358,4.183-9.58,6.208-.598.376-1.994,1.564-2.501,1.492-.626-.089-1.875-1.701-2.286-2.153-1.563-1.72-2.8-3.735-3.656-5.894-.593-1.495-3.041-.843-2.439.672h0Z" fill="#367cff"></path>
          <path d="m555.753,372.198c1.353,3.41,3.422,6.503,6.242,8.877,1.313,1.106,2.414,1.414,3.924.444,1.734-1.114,3.49-2.194,5.225-3.306,4.229-2.71,8.347-5.586,12.571-8.302,2.23-1.434,4.513-2.782,6.823-4.082,1.419-.799.145-2.985-1.277-2.184-4.494,2.53-8.764,5.362-13.047,8.227-3.163,2.116-6.358,4.183-9.58,6.208-.598.376-1.994,1.564-2.501,1.492-.626-.089-1.875-1.701-2.286-2.153-1.563-1.72-2.8-3.735-3.656-5.894-.593-1.495-3.041-.843-2.439.672h0Z" fill="#367cff"></path>
          <path d="m555.753,417.129c1.353,3.41,3.422,6.503,6.242,8.877,1.313,1.106,2.414,1.414,3.924.444,1.734-1.114,3.49-2.194,5.225-3.306,4.229-2.71,8.347-5.586,12.571-8.302,2.23-1.434,4.513-2.782,6.823-4.082,1.419-.799.145-2.985-1.277-2.184-4.494,2.53-8.764,5.362-13.047,8.227-3.163,2.116-6.358,4.183-9.58,6.208-.598.376-1.994,1.564-2.501,1.492-.626-.089-1.875-1.701-2.286-2.153-1.563-1.72-2.8-3.735-3.656-5.894-.593-1.495-3.041-.843-2.439.672h0Z" fill="#367cff"></path>
          <path d="m579.645,356.456c-9.243-.186-18.491-.081-27.727.333-1.345.06-3.357-.219-3.99,1.305-.356.856-.11,2.012-.085,2.927.061,2.266.042,4.535.019,6.801-.05,4.972-.189,9.942-.214,14.914-.007,1.326-.064,2.681.081,4.001.065.588.178,1.105.718,1.452.588.378,1.451.319,2.114.358,1.098.064,2.197.114,3.297.154,9.04.329,18.099.014,27.131.595.662.043,1.294-.614,1.265-1.265-.391-8.829-.782-17.657-1.173-26.486-.056-1.275-.113-2.55-.169-3.825-.072-1.621-2.602-1.63-2.53,0,.391,8.829.782,17.657,1.173,26.486.056,1.275.113,2.55.169,3.825l1.265-1.265c-7.399-.476-14.82-.35-22.229-.471-1.794-.029-3.588-.072-5.381-.142-.863-.034-1.725-.074-2.587-.123-.138-.008-1.11-.136-1.147-.07.511.807.715,1.038.61.692-.009-.036-.016-.072-.022-.108-.052.046.01.215-.006-.192-.01-.27-.025-.539-.033-.809-.019-.703-.02-1.407-.019-2.11.005-4.462.128-8.924.189-13.386.032-2.287.058-4.575.042-6.863-.006-.828-.016-1.655-.043-2.482-.011-.335.029-.73-.044-1.058-.032-.143-.033-.347-.031-.494l-.329.261c.373-.018.746-.036,1.119-.054,9.515-.446,19.043-.563,28.567-.371,1.628.033,1.628-2.497,0-2.53Z" fill="#367cff"></path>
          <path d="m579.645,401.328c-9.243-.186-18.491-.081-27.727.333-1.345.06-3.357-.219-3.99,1.305-.356.856-.11,2.012-.085,2.927.061,2.266.042,4.535.019,6.801-.05,4.972-.189,9.942-.214,14.914-.007,1.326-.064,2.681.081,4.001.065.588.178,1.105.718,1.452.588.378,1.451.319,2.114.358,1.098.064,2.197.114,3.297.154,9.04.329,18.099.014,27.131.595.662.043,1.294-.614,1.265-1.265-.391-8.829-.782-17.657-1.173-26.486-.056-1.275-.113-2.55-.169-3.825-.072-1.621-2.602-1.63-2.53,0,.391,8.829.782,17.657,1.173,26.486.056,1.275.113,2.55.169,3.825l1.265-1.265c-7.399-.476-14.82-.35-22.229-.471-1.794-.029-3.588-.072-5.381-.142-.863-.034-1.725-.074-2.587-.123-.138-.008-1.11-.136-1.147-.07.511.807.715,1.038.61.692-.009-.036-.016-.072-.022-.108-.052.046.01.215-.006-.192-.01-.27-.025-.539-.033-.809-.019-.703-.02-1.407-.019-2.11.005-4.462.128-8.924.189-13.386.032-2.287.058-4.575.042-6.863-.006-.828-.016-1.655-.043-2.482-.011-.335.029-.73-.044-1.058-.032-.143-.033-.347-.031-.494l-.329.261c.373-.018.746-.036,1.119-.054,9.515-.446,19.043-.563,28.567-.371,1.628.033,1.628-2.497,0-2.53Z" fill="#367cff"></path>
          <path d="m600.422,319.972c-.187,4.165,4.004,7.231,7.883,5.551,1.909-.827,2.566-2.347,3.563-4.026.681-1.147,1.19-.765,2.307-.31,1.136.463,2.313.722,3.53.858,5.215.585,10.657-1.11,15.807-1.752,5.47-.683,10.979-1.059,16.492-1.126,6.328-.078,12.653.261,18.94.984,1.614.186,1.601-2.345,0-2.53-10.239-1.177-20.586-1.315-30.85-.357-4.897.457-9.712,1.306-14.571,2.028-2.424.36-4.985.568-7.375-.096-1.729-.48-3.34-1.755-5.084-.583-1.654,1.111-1.735,3.534-3.509,4.475-2.317,1.229-4.714-.634-4.603-3.116.073-1.628-2.457-1.624-2.53,0h0Z" fill="#367cff"></path>
          <path d="m597.801,364.849c.348,3.368,4.399,3.634,6.73,2.07,1.626-1.09,3.03-2.783,5.168-1.998,1.985.729,3.556,2.134,5.685,2.56,4.442.89,9.251-.573,13.662-1.107,4.988-.604,10.005-.969,15.027-1.093,5.664-.14,11.329.036,16.975.5,1.622.133,1.614-2.397,0-2.53-9.108-.747-18.268-.728-27.37.101-4.508.411-8.952,1.254-13.446,1.732-2.037.217-4.178.247-6.068-.657-1.589-.76-3.019-1.911-4.799-2.199-1.992-.323-3.559.581-5.088,1.751-.68.521-1.394,1.17-2.26,1.332-.386.072-1.626.14-1.688-.462-.166-1.603-2.697-1.62-2.53,0h0Z" fill="#367cff"></path>
          <path d="m601.312,408.775c.247,3.774,4.751,4.754,7.763,3.605,2.105-.803,4.113-2.682,6.449-2.707,1.345-.015,2.579.696,3.785,1.202,1.288.541,2.609.984,3.966,1.317,5.118,1.253,10.447,1.098,15.66.701,5.664-.431,11.306-.947,16.988-1.107,6.682-.188,13.368-.045,20.037.405,1.625.11,1.618-2.42,0-2.53-10.837-.731-21.7-.609-32.521.323-4.977.429-9.993.94-14.988.501-2.412-.212-4.806-.688-7.088-1.507-2.186-.784-4.184-2.082-6.598-1.767-2.497.325-4.35,2.033-6.657,2.84-1.19.416-4.147.54-4.266-1.277-.106-1.616-2.636-1.628-2.53,0h0Z" fill="#367cff"></path>
        </g>
        <g>
          <g fill="none" opacity=".2">
            <path d="m651.884,58.713c1.432-3.391,3.185-6.633,5.277-9.664.702-1.017,1.657-2.828,3.127-2.247,1.358.537,2.584,2.109,3.599,3.12,2.075,2.067,4.153,4.279,6.75,5.7,2.61,1.429,5.544,1.813,8.434,1.094,2.992-.744,5.647-2.434,8.346-3.857,3.093-1.632,6.217-2.54,9.742-2.475,3.694.069,7.31.946,10.89,1.78,3.694.861,7.403,1.615,11.16,2.145,8.506,1.2,17.101,1.465,25.663.751,1.91-.159,1.927-3.161,0-3-7.941.662-15.938.508-23.843-.506-3.951-.507-7.856-1.276-11.734-2.179-3.7-.861-7.429-1.761-11.237-1.96-3.631-.189-7.112.445-10.409,1.977-2.797,1.3-5.372,3.137-8.311,4.117-2.997,1-5.775.565-8.371-1.213-2.499-1.711-4.457-4.115-6.672-6.156-1.345-1.239-2.88-2.58-4.83-2.499-1.763.073-3.045,1.367-4.038,2.689-2.499,3.329-4.517,7.037-6.134,10.866-.317.752-.22,1.598.538,2.052.625.375,1.738.207,2.052-.538h0Z" fill="#367cff"></path>
          </g>
          <g fill="none" opacity=".2">
            <path d="m661.856,81.576c.855-1.007,1.709-2.013,2.564-3.02.481-.566.961-1.133,1.442-1.699.36-.424.784-1.142,1.259-1.451.827-.538,2.015.637,2.771,1.044,1.029.555,2.138,1.001,3.267,1.305,4.462,1.2,9.176.431,13.613-.49,4.95-1.028,9.765-2.09,14.838-2.31,5.227-.226,10.456.053,15.683.125,5.943.082,11.915-.144,17.713-1.558,1.875-.457,1.081-3.351-.798-2.893-10.613,2.588-21.584.883-32.365,1.317-5.129.206-10.04,1.181-15.042,2.251-4.509.965-9.482,1.96-13.956.315-2.204-.81-4.54-3.343-7.015-1.881-1.182.698-2.022,2.024-2.891,3.048-1.068,1.258-2.137,2.517-3.205,3.775-1.243,1.464.87,3.596,2.121,2.121h0Z" fill="#367cff"></path>
          </g>
        </g>
      </g>
      <path d="m827.082,580.278H1c-.552,0-1-.448-1-1s.448-1,1-1h826.082c.552,0,1,.448,1,1s-.448,1-1,1Z" fill="#292a2e"></path>
      <g>
        <g>
          <rect x="565.194" y="546.764" width="111.51" height="32" transform="translate(1241.898 1125.527) rotate(180)" fill="#367cff"></rect>
          <rect x="565.194" y="546.764" width="111.51" height="32" transform="translate(1241.898 1125.527) rotate(180)" fill="#fff" opacity=".69"></rect>
          <rect x="580.169" y="546.764" width="14.612" height="32" transform="translate(1174.949 1125.527) rotate(180)" fill="#fff" opacity=".65"></rect>
          <rect x="601.702" y="552.846" width="60.754" height="18.963" transform="translate(1264.157 1124.655) rotate(180)" fill="#fff" opacity=".65"></rect>
        </g>
        <g>
          <rect x="538.606" y="514.794" width="109.978" height="32" transform="translate(1187.19 1061.588) rotate(-180)" fill="#367cff"></rect>
          <rect x="538.606" y="514.794" width="109.978" height="32" transform="translate(1187.19 1061.588) rotate(-180)" fill="#fff" opacity=".6"></rect>
          <rect x="552.659" y="520.877" width="59.919" height="18.963" transform="translate(1165.237 1060.716) rotate(-180)" fill="#fff" opacity=".42"></rect>
          <rect x="619.404" y="514.794" width="14.411" height="32" transform="translate(1253.219 1061.589) rotate(-180)" fill="#fff" opacity=".42"></rect>
        </g>
        <g>
          <rect x="453.212" y="509.983" width="111.51" height="32" transform="translate(1239.488 480.776) rotate(130.517)" fill="#367cff"></rect>
          <rect x="453.212" y="509.983" width="111.51" height="32" transform="translate(1239.488 480.776) rotate(130.517)" fill="#fff" opacity=".78"></rect>
          <rect x="479.913" y="535.431" width="14.612" height="32" transform="translate(1222.958 539.289) rotate(130.517)" fill="#367cff" opacity=".2"></rect>
          <rect x="485.489" y="507.758" width="60.754" height="18.963" transform="translate(1244.222 461.106) rotate(130.517)" fill="#367cff" opacity=".2"></rect>
        </g>
        <g>
          <rect x="662.786" y="477.124" width="162.02" height="3.001" transform="translate(-100.39 742.561) rotate(-50.123)" fill="#292a2e"></rect>
          <rect x="736.232" y="528.672" width="12.25" height="43.138" fill="#367cff"></rect>
          <polygon points="736.232 551.065 748.481 558.019 748.481 548.628 736.232 551.065" fill="#292a2e"></polygon>
          <rect x="722.607" y="571.809" width="41.087" height="6.469" rx="3.234" ry="3.234" fill="#367cff"></rect>
          <path d="m742.357,562.02c-22.855,0-44.894-9.605-60.462-26.354-.564-.607-.529-1.556.077-2.12s1.555-.529,2.12.077c15.003,16.14,36.239,25.396,58.265,25.396,43.854,0,79.533-35.678,79.533-79.532,0-25.681-12.506-49.917-33.454-64.833-.675-.48-.832-1.417-.352-2.092s1.419-.832,2.092-.352c21.736,15.478,34.714,40.627,34.714,67.276,0,45.509-37.024,82.532-82.533,82.532Z" fill="#292a2e"></path>
          <circle cx="742.357" cy="479.488" r="71.577" fill="#367cff"></circle>
          <circle cx="742.357" cy="479.488" r="71.577" fill="#fff" opacity=".5"></circle>
          <g fill="none" opacity=".4">
            <path d="m809.067,505.497c-9.15,23.44-30.29,40.87-55.88,44.76-.94-2.99-1.88-5.99-2.81-8.98-1.59-5.07-3.08-10.95-.18-15.4,1.4-2.15,3.63-3.59,5.63-5.19,4.22-3.4,7.64-7.79,9.89-12.72,1.14-2.51,2.12-5.33,4.41-6.87,1.38-.92,3.06-1.25,4.69-1.48,5.95-.85,12-.7,17.96-.04,4.22.47,8.49,1.22,12.25,3.19,1.46.77,2.8,1.69,4.04,2.73Z" fill="#fff"></path>
          </g>
          <g fill="none" opacity=".4">
            <path d="m813.877,476.657c-7.04-.77-13.94-2.89-20.15-6.3-2.48-1.36-4.89-2.96-6.63-5.18-1.48-1.91-2.41-4.21-3.02-6.55-.81-3.11-1.1-6.36-.86-9.56.35-4.63,1.75-9.6-.46-13.68-1.63-3.02-4.89-4.78-8.15-5.88-3.25-1.09-6.69-1.7-9.75-3.24-1.62-.82-3.18-1.98-3.92-3.64-.7-1.58-.57-3.4-.35-5.11.23-1.78.89-4.17,1.75-6.78,28.94,8.4,50.33,34.57,51.54,65.92Z" fill="#fff"></path>
          </g>
          <g fill="none" opacity=".4">
            <path d="m744.257,468.007c.46,11.66-18.37,12.14-21,22.25-2.09,6.1.439,12.73,1.67,19.06,3.45,17.79-11.25,24.43-24.94,27.86-17.71-13.03-29.21-34.02-29.21-57.69,0-12.33,3.12-23.94,8.62-34.07,2.29-.37,4.87-.52,7.76-.45,7.43-1.75,12.27-8.76,18.69-12.9,10.23-6.73,25.9-8.58,28.43,4.07,1.96,9.78-6.97,11.3-4.35,19.45,2.14,6.18,12.95,6.02,14.33,12.42Z" fill="#fff"></path>
          </g>
        </g>
      </g>
      <g>
        <g>
          <path d="m73.608,243.945s1.315,39.463-4.953,51.835c-18.045,35.617-21.964,62.658.746,80.714,22.709,18.056,156.637,6.771,162.835-39.806,5.218-39.213-13.466-41.767-20.666-73.122-3.258-14.187-11.409-43.822-11.409-43.822" fill="#0a0a0a"></path>
          <path id="sk" d="m191.391,336.539c-.229-.03-2.77,42.137-51.756,38.461-33.913-2.54-46.004-38.521-46.781-38.521,3.656-.777,9.813-1.907,11.437-2.774,5.34-2.869,11.947-5.855,13.669-16.225.992-5.977-.691-36.555-.173-42.602l52.056,11.619c-.727,12.772-5.818,42.381,12.025,47.621,2.969.867,6.167,1.664,9.524,2.421Z" fill="#ff9e85"></path>
          <path id="sh" d="m170.572,322.018c-.737-2.354-1.176-4.4-1.566-8.079-.697-6.58-.326-12.628.34-18.791-10.516-1.4-20.612-5.823-28.771-12.605-.967,3.57-6.283,19.168-4.811,22.561,2.782,6.413,15.856,16.915,34.807,16.915Z" fill="#0c0c0c" opacity=".22"></path>
          <path d="m163.78,307.464c-20.541,3.799-40.595-2.629-48.529-29.735l-11.624-24.008c-7.934-27.106-.129-53.248,25.393-60.718h0c25.522-7.47,47.252-.921,55.186,26.185,0,0,4.775,15.486,5.796,20.782,3.85,19.973,4.943,61.73-26.224,67.494Z" fill="#ff9e85"></path>
          <path d="m169.838,277.445c.434-.079.807.288.757.727-.645,5.69-5.449,9.491-11.328,9.283s-10.679-4.32-10.983-10.009c-.024-.454.403-.796.839-.668,1.391.41,4.618,1.125,10.575,1.292,5.117.143,8.635-.352,10.14-.625Z" fill="#fff"></path>
          <path id="e1_eb" d="m185.162,236.298c-.008.905-3.389,1.142-7.946.877-4.557-.266-8.612-.713-8.555-1.839.072-1.422,3.844-2.359,8.4-2.093,4.557.266,8.112,1.631,8.1,3.055Z" fill="#0a0a0a"></path>
          <path d="m83.676,264.445l30.07,5.208c16.954-8.874,12.12-51.727,12.12-51.727,0,0,23.493,18.799,74.296,1.818,0,0-17.298-69.15-92.007-40.551-24.09,9.222-39.186,38.213-33.705,71.337,3.841,23.213,9.226,13.915,9.226,13.915Z" fill="#0a0a0a"></path>
          <path d="m114.789,285.973c-7.756,2.27-16.168.259-19.554-11.425-2.249-7.762,3.577-14.392,11.333-16.662l5.518,4.027,9.372,22.108-6.668,1.952Z" fill="#ff9e85"></path>
          <g>
            <circle id="e1_eye" cx="172.623" cy="246.106" r="2.892" transform="translate(-23.184 18.013) rotate(-5.598)" fill="#0a0a0a"></circle>
            <g id="e1_n">
              <path d="m160.71,269.973c-.583.057-1.125-.334-1.245-.92-.128-.626.275-1.238.902-1.366l6.036-1.235-4.948-11.813c-.246-.59.031-1.267.621-1.514.589-.246,1.267.031,1.514.62l5.49,13.112c.133.319.117.682-.045.988s-.452.523-.791.593l-7.415,1.518c-.04.008-.08.014-.12.018Z" fill="#0a0a0a"></path>
            </g>
            <path id="e1_eb-2" data-name="e1_eb" d="m150.138,238.137c.36.831-2.634,2.419-6.907,4.025-4.272,1.606-8.161,2.843-8.565,1.79-.511-1.329,2.556-3.715,6.829-5.321,4.272-1.606,8.076-1.8,8.643-.494Z" fill="#0a0a0a"></path>
            <circle id="e1_eye-2" data-name="e1_eye" cx="143.934" cy="250.771" r="2.893" transform="translate(-23.776 15.237) rotate(-5.598)" fill="#0a0a0a"></circle>
          </g>
          <path d="m95.366,253.467l.716,11.019c1.839-2.713,4.681-4.752,8.137-5.511.858-.2,1.722-.274,2.571-.286,5.659,3.646,2.673,11.611,6.956,10.963,2.433-.368,7.441-6.686,8.427-10.398.625-2.353-6.338-10.463-6.545-12.889" fill="#0a0a0a"></path>
        </g>
        <g>
          <path d="m431.962,240.504c1.138-3.137,4.679-4.708,7.791-3.39,2.919,1.235,4.181,4.715,3.1,7.694l-2.696,7.43,16.934-17.267c2.105-2.21,6.101-3.576,8.424-1.052,2.013,1.916,6.665,2.507,7.42,6.099.026.019-.021,32.894-1.973,34.944h0c-8.283,8.698-28.305,10.38-39.475,5.964l-17.58-6.951,18.054-33.47Z" fill="#ff9e85"></path>
          <g fill="none" opacity=".1">
            <path d="m431.962,240.504c1.138-3.137,4.679-4.708,7.791-3.39,2.919,1.235,4.181,4.715,3.1,7.694l-2.696,7.43,16.934-17.267c2.105-2.21,6.101-3.576,8.424-1.052,2.013,1.916,6.665,2.507,7.42,6.099.026.019-.021,32.894-1.973,34.944h0c-8.283,8.698-28.305,10.38-39.475,5.964l-17.58-6.951,18.054-33.47Z" fill="#0c0c0c"></path>
          </g>
          <path d="m449.276,276.094c-.436,0-.877-.071-1.312-.222-2.087-.725-3.191-3.003-2.467-5.091l69.312-199.662c.724-2.087,3.004-3.191,5.09-2.467,2.087.725,3.191,3.003,2.467,5.091l-69.312,199.662c-.573,1.652-2.122,2.689-3.778,2.689Z" fill="#0a0a0a"></path>
          <path d="m448.548,261.062c.686-2.415,2.725-3.405,4.617-3.491-.014-.083-.104-.276.041-.292l-3.598-1.747c-2.175-1.056-3.418-3.557-2.635-5.844.812-2.372,3.231-3.594,5.5-3.076-.016-.044.007-.093.006-.14l-1.478-.718c-2.045-.993-3.249-3.287-2.658-5.483.794-2.955,4-4.319,6.609-3.052l3.411,1.656c.006-.019-.006-.039.002-.058.009-.025.041-.03.055-.052-1.677-1.342-2.273-3.704-1.295-5.718,1.038-2.553,4.429-2.649,6.635-1.578l6.686,3.914c2.097,1.227,3.435,3.421,3.575,5.847.596,10.329,1.509,37.344-5.532,33.925l-17.332-8.416c-2-.971-3.22-3.539-2.612-5.678Z" fill="#ff9e85"></path>
        </g>
        <path d="m231.697,341.438l147.927,49.447-43.431,19.305,73.756-151.319,60.283,28.094-68.437,153.798c-7.251,16.295-25.285,24.424-41.961,19.723l-1.471-.418-150.167-42.16,23.5-76.47Z" fill="#367cff"></path>
        <path id="b_1_b" d="m138.706,364.448c-34.092-1.607-35.527-30.544-35.527-30.544,0,0-16.892,1.092-28.121,2.611-18.384,2.487-30.512,8.721-40.163,18.372-8.978,8.978-14.444,18.692-8.66,80.711,4.188,44.906,1.24,143.679,1.24,143.679h207.75s14.507-142.697,16.227-162.911c3.283-38.589,12.555-47.108-6.232-66.986-13.625-14.416-48.797-15.476-62.958-15.474-.231,0,2.873,32.73-43.555,30.541Z" fill="#367cff"></path>
        <g>
          <path d="m209.668,483.461l31.273-13.967c2.879-1.286,6.282.144,7.337,3.19.935,2.701-.563,5.656-3.173,6.821l-6.706,2.995,25.411.261c2.826-.02,6.306,1.762,6.12,4.934.018,2.574-1.762,4.736-4.164,5.307.003.027.015.053.012.081,0,.022-.01.04-.013.061l4.358-.031c3.36-.024,6.028,3.016,5.352,6.505-.495,2.555-2.873,4.315-5.476,4.334l-1.854.013c-.025.054-.058.103-.1.144,2.518.564,4.379,2.878,4.221,5.608-.167,2.895-2.73,5.076-5.63,5.097l-4.606.033c.127.091.214.233.216.404-.001.099-.038.186-.089.264,2.025,1.089,3.284,3.423,2.727,5.987-.542,2.496-2.895,4.184-5.449,4.202l-38.86.277c-11.121.079-21.178-6.597-25.422-16.877h0c-3.72-9.009.403-19.343,9.303-23.317l5.211-2.327Z" fill="#ff9e85"></path>
          <g fill="none" opacity=".2">
            <path d="m240.612,492.868c.004.271.224.49.496.493l24.166.218c.276.002.502-.219.504-.496.023-.259-.22-.502-.496-.504l-24.166-.218c-.276-.002-.502.219-.504.496v.012Z" fill="#0c0c0c"></path>
          </g>
          <g fill="none" opacity=".2">
            <path d="m240.222,503.523c.004.271.224.49.496.493l26.969.243c.276.002.502-.219.504-.496,0-.252-.22-.502-.496-.504l-26.969-.243c-.276-.002-.502.219-.504.496v.012Z" fill="#0c0c0c"></path>
          </g>
          <g fill="none" opacity=".2">
            <path d="m239.733,515.061c.004.271.224.49.496.493l21.513.194c.276.002.502-.219.504-.496-.003-.279-.22-.502-.496-.504l-21.513-.194c-.276-.002-.502.219-.504.496v.012Z" fill="#0c0c0c"></path>
          </g>
        </g>
        <path id="b_4_b" d="m218.619,539.144l-173.387,39.415c-1.356.147-2.712.22-4.061.22-10.264,0-20.15-4.216-27.274-11.767-8.061-8.545-11.652-20.372-9.703-31.955l19.842-159.603c3.437-20.423,22.775-34.19,43.202-30.759,20.423,3.436,34.195,22.778,30.759,43.202l-9.555,114.235,120.464-27.261,9.714,64.273Z" fill="#367cff"></path>
        <g id="b_4_st">
          <path d="m64.065,506.624c-.244,0-.457-.178-.494-.426-.041-.273.147-.527.42-.568l24.161-5.159c.283-.043.528.147.569.42.041.273-.147.527-.42.568l-24.161,5.159c-.025.004-.05.006-.075.006Z" fill="#0c0c0c"></path>
        </g>
        <g id="b_4_st-2" data-name="b_4_st">
          <path d="m50.433,579.278c-.248,0-.462-.184-.495-.436-.036-.273.157-.524.431-.561l167.161-39.371-9.471-63.301-119.745,25.851c-.158.019-.315-.035-.425-.148-.11-.114-.16-.274-.134-.431l6.716-65.27c.045-.272.298-.461.576-.41.272.046.456.304.41.576l-6.604,64.602,119.434-25.87c.13-.037.269-.017.385.051s.2.18.233.311l9.714,64.273c.066.263-.091.532-.353.604l-167.767,39.527c-.022.003-.044.004-.065.004Z" fill="#0c0c0c"></path>
        </g>
        <path d="m250.99,430.423c-.021,0-.041,0-.062-.004-.273-.033-.469-.283-.435-.558l3.217-26.077c.033-.274.272-.473.558-.435.273.033.469.283.435.558l-3.217,26.077c-.031.253-.247.438-.495.438Z" fill="#0c0c0c"></path>
      </g>
    </g>
  </g>
</svg>